<svg width="22" height="22" viewBox="0 0 22 22" fill="none" xmlns="http://www.w3.org/2000/svg">
<path d="M11 7.33332V11.9167M11 14.6667H11.0092M4.52582 15.1184C4.20875 14.8013 4.05021 14.6428 3.93683 14.4578C3.83631 14.2937 3.76224 14.1149 3.71733 13.9278C3.66667 13.7168 3.66667 13.4926 3.66667 13.0442V8.95576C3.66667 8.50734 3.66667 8.28313 3.71733 8.07214C3.76224 7.88507 3.83631 7.70624 3.93683 7.54221C4.05021 7.35719 4.20875 7.19866 4.52583 6.88158L6.88159 4.52581C7.19867 4.20873 7.35721 4.05019 7.54222 3.93682C7.70626 3.8363 7.88509 3.76222 8.07215 3.71731C8.28315 3.66666 8.50736 3.66666 8.95577 3.66666H13.0442C13.4927 3.66666 13.7169 3.66666 13.9279 3.71731C14.1149 3.76222 14.2938 3.8363 14.4578 3.93682C14.6428 4.05019 14.8013 4.20873 15.1184 4.52581L17.4742 6.88158C17.7913 7.19866 17.9498 7.35719 18.0632 7.54221C18.1637 7.70624 18.2378 7.88507 18.2827 8.07214C18.3333 8.28313 18.3333 8.50734 18.3333 8.95576V13.0442C18.3333 13.4926 18.3333 13.7168 18.2827 13.9278C18.2378 14.1149 18.1637 14.2937 18.0632 14.4578C17.9498 14.6428 17.7913 14.8013 17.4742 15.1184L15.1184 17.4742C14.8013 17.7912 14.6428 17.9498 14.4578 18.0632C14.2938 18.1637 14.1149 18.2378 13.9279 18.2827C13.7169 18.3333 13.4927 18.3333 13.0442 18.3333H8.95577C8.50736 18.3333 8.28315 18.3333 8.07215 18.2827C7.88509 18.2378 7.70626 18.1637 7.54222 18.0632C7.35721 17.9498 7.19867 17.7912 6.88159 17.4742L4.52582 15.1184Z" stroke="white" stroke-linecap="round" stroke-linejoin="round"/>
</svg>
