<svg width="23" height="23" viewBox="0 0 23 23" fill="none" xmlns="http://www.w3.org/2000/svg">
<path d="M3.84723 12.5297L7.28289 8.3436C7.63349 7.89283 7.80879 7.66744 7.90066 7.41465C7.98195 7.19098 8.01558 6.95278 7.9994 6.71535C7.98111 6.44701 7.87507 6.1819 7.66298 5.65167L6.85397 3.62915C6.5401 2.84448 6.38317 2.45215 6.11244 2.19499C5.87389 1.96838 5.57494 1.81553 5.25157 1.75481C4.88459 1.68591 4.47465 1.78839 3.65477 1.99336L1.41528 2.55331C1.41528 13.9366 9.38327 21.905 20.7669 21.905L21.3266 19.6652C21.5316 18.8453 21.634 18.4354 21.5651 18.0684C21.5044 17.745 21.3516 17.4461 21.125 17.2075C20.8678 16.9368 20.4755 16.7798 19.6908 16.466L17.8859 15.744C17.281 15.5021 16.9786 15.3811 16.677 15.3718C16.4105 15.3636 16.1458 15.418 15.904 15.5305C15.6305 15.6578 15.4001 15.8881 14.9395 16.3488L11.4638 19.8256M12.7983 5.96831C13.9101 6.18524 14.932 6.72901 15.733 7.53003C16.534 8.33105 17.0778 9.35288 17.2947 10.4647M12.7983 1.41498C15.1083 1.6716 17.2624 2.70605 18.9069 4.34847C20.5514 5.9909 21.5885 8.14368 21.8481 10.4533" stroke="white" stroke-width="2" stroke-linecap="round" stroke-linejoin="round"/>
</svg>
