<svg width="29" height="29" viewBox="0 0 29 29" fill="none" xmlns="http://www.w3.org/2000/svg">
<path d="M27.625 1.375L20.3333 8.66667M20.3333 1.375L27.625 8.66667M23.9792 27.625C11.4952 27.625 1.375 17.5048 1.375 5.02083C1.375 4.4576 1.3956 3.89917 1.43609 3.34627C1.48255 2.71174 1.50579 2.39447 1.67207 2.10567C1.80978 1.86648 2.05386 1.63963 2.30247 1.51974C2.60264 1.375 2.95274 1.375 3.65294 1.375H7.7615C8.35032 1.375 8.64473 1.375 8.89712 1.47191C9.12005 1.55751 9.31856 1.69655 9.47519 1.87681C9.65252 2.08088 9.75313 2.35757 9.95435 2.91093L11.6549 7.58757C11.8891 8.23139 12.0061 8.55331 11.9863 8.85873C11.9687 9.12804 11.8768 9.3872 11.7208 9.60738C11.5438 9.85708 11.25 10.0333 10.6626 10.3858L8.66667 11.5833C10.4194 15.4463 13.5523 18.5832 17.4167 20.3333L18.6142 18.3374C18.9667 17.75 19.1429 17.4562 19.3926 17.2793C19.6128 17.1232 19.872 17.0313 20.1413 17.0137C20.4467 16.9939 20.7686 17.1109 21.4124 17.3451L26.0891 19.0456C26.6424 19.2469 26.9191 19.3475 27.1232 19.5248C27.3035 19.6814 27.4425 19.8799 27.5281 20.1029C27.625 20.3553 27.625 20.6497 27.625 21.2385V25.3471C27.625 26.0473 27.625 26.3974 27.4803 26.6975C27.3604 26.9461 27.1335 27.1902 26.8943 27.3279C26.6055 27.4942 26.2883 27.5174 25.6537 27.5639C25.1008 27.6044 24.5424 27.625 23.9792 27.625Z" stroke="white" stroke-width="2" stroke-linecap="round" stroke-linejoin="round"/>
</svg>
