<svg width="23" height="21" viewBox="0 0 23 21" fill="none" xmlns="http://www.w3.org/2000/svg">
<path d="M5.875 7.125H17.125M5.875 11.625H17.125M21.625 19.5L17.8851 17.6301C17.6016 17.4883 17.4599 17.4174 17.3113 17.3675C17.1794 17.3231 17.0437 17.291 16.9058 17.2717C16.7506 17.25 16.5921 17.25 16.2752 17.25H6.775C4.88482 17.25 3.93973 17.25 3.21778 16.8821C2.58274 16.5586 2.06643 16.0423 1.74285 15.4072C1.375 14.6853 1.375 13.7402 1.375 11.85V6.9C1.375 5.00982 1.375 4.06473 1.74285 3.34278C2.06643 2.70774 2.58274 2.19143 3.21778 1.86785C3.93973 1.5 4.88482 1.5 6.775 1.5H16.225C18.1152 1.5 19.0603 1.5 19.7822 1.86785C20.4173 2.19143 20.9336 2.70774 21.2571 3.34278C21.625 4.06473 21.625 5.00982 21.625 6.9V19.5Z" stroke="white" stroke-width="2" stroke-linecap="round" stroke-linejoin="round"/>
</svg>
