<svg width="159" height="55" viewBox="0 0 159 55" fill="none" xmlns="http://www.w3.org/2000/svg">
<path d="M0.695781 9.704H7.91178V42H0.695781V9.704ZM7.91178 0.683997V7.9H0.739781V0.683997H7.91178ZM14.4614 24.004C14.4614 22.0387 14.8427 20.1907 15.6054 18.46C16.3681 16.7293 17.3947 15.2187 18.6854 13.928C19.9761 12.608 21.4867 11.5813 23.2174 10.848C24.9774 10.0853 26.8401 9.704 28.8054 9.704C30.8001 9.704 32.6627 10.0853 34.3934 10.848C36.1534 11.5813 37.6787 12.608 38.9694 13.928C40.2894 15.2187 41.3161 16.7293 42.0494 18.46C42.8121 20.1907 43.1934 22.0387 43.1934 24.004V42H36.0214V24.004C36.0214 23.036 35.8307 22.112 35.4494 21.232C35.0681 20.352 34.5547 19.5893 33.9094 18.944C33.2641 18.2987 32.5014 17.7853 31.6214 17.404C30.7414 17.0227 29.8027 16.832 28.8054 16.832C27.8081 16.832 26.8694 17.0227 25.9894 17.404C25.1387 17.7853 24.3907 18.2987 23.7454 18.944C23.1001 19.5893 22.5867 20.352 22.2054 21.232C21.8534 22.112 21.6774 23.036 21.6774 24.004V42H14.4614V24.004ZM49.7544 24.004C49.7544 22.0387 50.1357 20.1907 50.8984 18.46C51.661 16.7293 52.6877 15.2187 53.9784 13.928C55.269 12.608 56.7797 11.5813 58.5104 10.848C60.2704 10.0853 62.133 9.704 64.0984 9.704C66.093 9.704 67.9557 10.0853 69.6864 10.848C71.4464 11.5813 72.9717 12.608 74.2624 13.928C75.5824 15.2187 76.609 16.7293 77.3424 18.46C78.105 20.1907 78.4864 22.0387 78.4864 24.004V42H71.3144V24.004C71.3144 23.036 71.1237 22.112 70.7424 21.232C70.361 20.352 69.8477 19.5893 69.2024 18.944C68.557 18.2987 67.7944 17.7853 66.9144 17.404C66.0344 17.0227 65.0957 16.832 64.0984 16.832C63.101 16.832 62.1624 17.0227 61.2824 17.404C60.4317 17.7853 59.6837 18.2987 59.0384 18.944C58.393 19.5893 57.8797 20.352 57.4984 21.232C57.1464 22.112 56.9704 23.036 56.9704 24.004V42H49.7544V24.004Z" fill="#2ECB70"/>
<path d="M92.2193 0.727999V42H85.0473V0.727999H92.2193ZM95.69 9.704H103.522L112.19 29.152L119.274 9.704H126.93L114.346 44.112C113.789 45.6667 113.041 47.0747 112.102 48.336C111.163 49.5973 110.078 50.6827 108.846 51.592C107.614 52.5013 106.265 53.22 104.798 53.748C103.361 54.3053 101.865 54.6427 100.31 54.76H100.222V47.544C101.894 47.3093 103.39 46.6933 104.71 45.696C106.059 44.6987 107.027 43.364 107.614 41.692L108.626 38.876L95.69 9.704ZM129.551 24.004C129.551 22.0387 129.933 20.1907 130.695 18.46C131.458 16.7293 132.485 15.2187 133.775 13.928C135.066 12.608 136.577 11.5813 138.307 10.848C140.067 10.0853 141.93 9.704 143.895 9.704C145.89 9.704 147.753 10.0853 149.483 10.848C151.243 11.5813 152.769 12.608 154.059 13.928C155.379 15.2187 156.406 16.7293 157.139 18.46C157.902 20.1907 158.283 22.0387 158.283 24.004V42H151.111V24.004C151.111 23.036 150.921 22.112 150.539 21.232C150.158 20.352 149.645 19.5893 148.999 18.944C148.354 18.2987 147.591 17.7853 146.711 17.404C145.831 17.0227 144.893 16.832 143.895 16.832C142.898 16.832 141.959 17.0227 141.079 17.404C140.229 17.7853 139.481 18.2987 138.835 18.944C138.19 19.5893 137.677 20.352 137.295 21.232C136.943 22.112 136.767 23.036 136.767 24.004V42H129.551V24.004Z" fill="black"/>
</svg>
