<svg width="211" height="110" viewBox="0 0 211 110" fill="none" xmlns="http://www.w3.org/2000/svg">
<path d="M49.4517 109.549C54.2439 109.549 58.1288 108.092 58.1288 106.295C58.1288 104.498 54.2439 103.041 49.4517 103.041C44.6595 103.041 40.7747 104.498 40.7747 106.295C40.7747 108.092 44.6595 109.549 49.4517 109.549Z" fill="#2F2E41"/>
<path d="M70.2769 109.115C75.0691 109.115 78.954 107.658 78.954 105.861C78.954 104.064 75.0691 102.607 70.2769 102.607C65.4847 102.607 61.5999 104.064 61.5999 105.861C61.5999 107.658 65.4847 109.115 70.2769 109.115Z" fill="#2F2E41"/>
<path d="M97.923 54.4234C106.123 49.6964 111.567 43.7777 110.083 41.2036C108.599 38.6295 100.749 40.3747 92.5492 45.1016C84.3495 49.8286 78.9054 55.7473 80.3893 58.3214C81.8732 60.8955 89.7233 59.1503 97.923 54.4234Z" fill="#2F2E41"/>
<path d="M90.2252 66.0139C93.2573 47.3291 80.5684 29.7241 61.8836 26.692C43.1988 23.6598 25.5938 36.3488 22.5617 55.0336C19.5296 73.7184 32.2186 91.3234 50.9033 94.3555C69.5881 97.3876 87.1931 84.6986 90.2252 66.0139Z" fill="#2F2E41"/>
<path d="M51.1871 87.4225H40.7747V106.078H51.1871V87.4225Z" fill="#2F2E41"/>
<path d="M72.0123 87.4225H61.5999V106.078H72.0123V87.4225Z" fill="#2F2E41"/>
<path d="M57.2614 63.5606C63.7309 63.5606 68.9754 58.3161 68.9754 51.8466C68.9754 45.3772 63.7309 40.1326 57.2614 40.1326C50.7919 40.1326 45.5474 45.3772 45.5474 51.8466C45.5474 58.3161 50.7919 63.5606 57.2614 63.5606Z" fill="white"/>
<path d="M57.2616 55.7513C59.4181 55.7513 61.1663 54.0031 61.1663 51.8466C61.1663 49.6902 59.4181 47.942 57.2616 47.942C55.1051 47.942 53.3569 49.6902 53.3569 51.8466C53.3569 54.0031 55.1051 55.7513 57.2616 55.7513Z" fill="#3F3D56"/>
<path d="M23.1464 28.6496C20.3789 16.2555 29.2254 3.73172 42.9057 0.67702C56.586 -2.37768 69.9196 5.19343 72.6871 17.5875C75.4546 29.9816 66.3881 34.5528 52.7078 37.6074C39.0275 40.6621 25.9138 41.0437 23.1464 28.6496Z" fill="#E6E6E6"/>
<path d="M33.2732 51.964C34.5465 49.2794 28.6463 43.8152 20.0947 39.7594C11.5432 35.7035 3.57869 34.5919 2.30543 37.2765C1.03218 39.961 6.93235 45.4252 15.4839 49.4811C24.0354 53.5369 32 54.6486 33.2732 51.964Z" fill="#2F2E41"/>
<path d="M39.5583 72.8885C39.5583 76.243 48.1957 82.867 57.7801 82.867C67.3645 82.867 76.351 73.4229 76.351 70.0684C76.351 66.7139 67.3645 70.7192 57.7801 70.7192C48.1957 70.7192 39.5583 69.5339 39.5583 72.8885Z" fill="white"/>
<path d="M175.905 109.549C180.698 109.549 184.582 108.092 184.582 106.295C184.582 104.498 180.698 103.041 175.905 103.041C171.113 103.041 167.228 104.498 167.228 106.295C167.228 108.092 171.113 109.549 175.905 109.549Z" fill="#2F2E41"/>
<path d="M155.08 109.115C159.873 109.115 163.757 107.658 163.757 105.861C163.757 104.064 159.873 102.607 155.08 102.607C150.288 102.607 146.403 104.064 146.403 105.861C146.403 107.658 150.288 109.115 155.08 109.115Z" fill="#2F2E41"/>
<path d="M144.968 58.3213C146.452 55.7472 141.008 49.8285 132.808 45.1016C124.609 40.3746 116.759 38.6294 115.275 41.2035C113.791 43.7777 119.235 49.6963 127.435 54.4233C135.634 59.1502 143.484 60.8954 144.968 58.3213Z" fill="#2F2E41"/>
<path d="M168.964 94.798C187.893 94.798 203.238 79.4528 203.238 60.5237C203.238 41.5945 187.893 26.2493 168.964 26.2493C150.035 26.2493 134.689 41.5945 134.689 60.5237C134.689 79.4528 150.035 94.798 168.964 94.798Z" fill="#2F2E41"/>
<path d="M184.582 87.4225H174.17V106.078H184.582V87.4225Z" fill="#2F2E41"/>
<path d="M163.758 87.4225H153.345V106.078H163.758V87.4225Z" fill="#2F2E41"/>
<path d="M160.933 63.5606C167.403 63.5606 172.648 58.3161 172.648 51.8466C172.648 45.3772 167.403 40.1326 160.933 40.1326C154.464 40.1326 149.219 45.3772 149.219 51.8466C149.219 58.3161 154.464 63.5606 160.933 63.5606Z" fill="white"/>
<path d="M158.111 53.0056C159.641 51.4771 159.651 49.0064 158.133 47.4872C156.615 45.968 154.144 45.9756 152.614 47.5042C151.084 49.0328 151.075 51.5035 152.592 53.0226C154.11 54.5418 156.581 54.5342 158.111 53.0056Z" fill="#3F3D56"/>
<path d="M172.65 37.6074C158.969 34.5527 149.903 29.9816 152.67 17.5875C155.438 5.19335 168.772 -2.37774 182.452 0.67696C196.132 3.73166 204.979 16.2554 202.211 28.6495C199.444 41.0436 186.33 40.6621 172.65 37.6074Z" fill="#2ECB70"/>
<path d="M204.805 86.6498C207.676 85.887 208.035 77.8533 205.605 68.7059C203.175 59.5584 198.878 52.7613 196.006 53.524C193.135 54.2867 192.776 62.3205 195.206 71.4679C197.635 80.6154 201.933 87.4125 204.805 86.6498Z" fill="#2F2E41"/>
<path d="M161.199 70.7198C154.906 70.7198 149.007 66.7145 149.007 70.069C149.007 73.4235 154.906 82.8675 161.199 82.8675C167.491 82.8675 173.162 76.2435 173.162 72.889C173.162 69.5345 167.491 70.7198 161.199 70.7198Z" fill="white"/>
<path d="M115.213 52.0594H114.811C109.758 52.0561 104.913 50.0464 101.341 46.4721C97.769 42.8978 95.7625 38.0515 95.7625 32.9983C95.7625 27.9451 97.769 23.0987 101.341 19.5244C104.913 15.9501 109.758 13.9405 114.811 13.9372H115.213C117.717 13.9356 120.197 14.4274 122.511 15.3846C124.825 16.3418 126.928 17.7456 128.699 19.5157C130.47 21.2859 131.875 23.3877 132.834 25.7011C133.793 28.0145 134.286 30.4941 134.286 32.9983C134.286 35.5025 133.793 37.9821 132.834 40.2955C131.875 42.6089 130.47 44.7107 128.699 46.4809C126.928 48.251 124.825 49.6548 122.511 50.612C120.197 51.5692 117.717 52.061 115.213 52.0594Z" fill="#2ECB70"/>
<line x1="110.09" y1="39.4348" x2="122.456" y2="26.4181" stroke="white" stroke-width="4" stroke-linecap="round"/>
<line x1="123.234" y1="39.7426" x2="109.695" y2="27.9512" stroke="white" stroke-width="4" stroke-linecap="round"/>
</svg>
