<svg width="256" height="227" viewBox="0 0 256 227" fill="none" xmlns="http://www.w3.org/2000/svg">
<g clip-path="url(#clip0_492_1629)">
<path d="M134.921 121.656C135.226 121.184 135.626 120.782 136.096 120.477C136.566 120.171 137.095 119.968 137.648 119.881C138.202 119.795 138.767 119.827 139.308 119.975C139.848 120.122 140.351 120.383 140.784 120.74C140.921 120.853 141.049 120.976 141.169 121.108L156.799 118.826L157.669 107.04C157.736 106.135 158.158 105.295 158.842 104.703C159.527 104.111 160.418 103.815 161.32 103.882C162.222 103.949 163.06 104.372 163.651 105.059C164.241 105.745 164.535 106.639 164.469 107.543C164.467 107.564 164.466 107.585 164.464 107.606L162.94 124.144L162.933 124.181C162.734 124.817 162.337 125.372 161.799 125.763C161.262 126.154 160.613 126.361 159.949 126.354L141.564 126.035C141.493 126.145 141.416 126.25 141.333 126.351C140.978 126.785 140.535 127.139 140.033 127.39C139.532 127.64 138.983 127.781 138.423 127.804C137.863 127.827 137.305 127.731 136.785 127.523C136.265 127.314 135.794 126.998 135.404 126.594C135.325 126.513 135.25 126.429 135.179 126.343C134.649 125.688 134.339 124.883 134.293 124.041C134.247 123.2 134.467 122.365 134.921 121.656Z" fill="#FFB7B7"/>
<path d="M166.434 222.148L161.975 222.148L159.855 204.905L166.434 204.905L166.434 222.148Z" fill="#FFB7B7"/>
<path d="M167.571 226.481L153.196 226.481V226.298C153.196 224.81 153.786 223.384 154.835 222.331C155.884 221.279 157.307 220.688 158.791 220.688H158.792L167.571 220.688L167.571 226.481Z" fill="#2F2E41"/>
<path d="M197.584 218.095L193.365 219.538L185.806 203.905L192.034 201.775L197.584 218.095Z" fill="#FFB7B7"/>
<path d="M200.055 221.828L186.451 226.481L186.392 226.309C185.913 224.9 186.012 223.359 186.666 222.024C187.32 220.688 188.477 219.668 189.881 219.188L189.881 219.187L198.191 216.346L200.055 221.828Z" fill="#2F2E41"/>
<path d="M171.343 71.3845C171.343 71.3845 166.906 69.915 164.053 75.7928C161.201 81.6706 156.764 88.1361 156.764 88.1361L159.299 88.7239C159.299 88.7239 159.933 84.6095 161.518 84.0217L160.884 89.3117C160.884 89.3117 179.9 95.4833 188.457 88.7239L188.14 86.6667C188.14 86.6667 189.408 86.9606 189.408 88.7239L190.359 87.8422C190.359 87.8422 189.408 86.0789 186.556 83.7278C184.683 82.1846 184.04 79.2488 183.819 77.4132C183.644 75.8592 182.979 74.4016 181.922 73.252C180.026 71.2148 176.572 69.0497 171.343 71.3845Z" fill="#2F2E41"/>
<path d="M172.978 91.9204C177.454 91.9204 181.082 88.282 181.082 83.7938C181.082 79.3056 177.454 75.6672 172.978 75.6672C168.502 75.6672 164.874 79.3056 164.874 83.7938C164.874 88.282 168.502 91.9204 172.978 91.9204Z" fill="#FFB7B7"/>
<path d="M162.173 98.6122L160.699 98.1196C160.699 98.1196 157.752 99.3509 157.752 101.567C157.752 103.784 157.261 112.649 157.261 112.649L163.892 113.388L162.173 98.6122Z" fill="#CBCBCB"/>
<path d="M188.545 147.051C187.934 146.365 187.589 145.481 187.573 144.56C187.557 143.64 187.871 142.745 188.457 142.037L184.321 107.299C184.28 106.48 184.566 105.678 185.114 105.069C185.662 104.461 186.429 104.095 187.246 104.053C188.063 104.011 188.863 104.295 189.471 104.844C190.079 105.393 190.445 106.161 190.488 106.98C190.489 106.992 190.49 107.003 190.49 107.014L194.19 141.789C194.325 141.924 194.448 142.069 194.56 142.223C194.857 142.635 195.07 143.101 195.187 143.595C195.305 144.089 195.323 144.602 195.243 145.103C195.163 145.605 194.985 146.086 194.719 146.518C194.453 146.951 194.106 147.326 193.695 147.624C193.653 147.655 193.609 147.685 193.566 147.714C193.09 148.029 192.551 148.235 191.987 148.317C191.424 148.399 190.848 148.354 190.304 148.187C189.623 147.98 189.014 147.587 188.545 147.051Z" fill="#FFB7B7"/>
<path d="M184.757 112.649L191.387 111.91C191.387 111.91 190.896 103.045 190.896 100.829C190.896 98.6122 187.949 97.3809 187.949 97.3809L186.476 97.8734L184.757 112.649Z" fill="#CBCBCB"/>
<path d="M163.155 124.95C163.155 124.95 157.507 135.305 157.507 147.864C157.507 160.424 157.015 218.049 157.015 218.049C157.015 218.049 164.383 221.497 168.803 217.31L172.732 153.528L188.204 216.079C188.204 216.079 195.571 217.556 199.009 215.094L192.379 171.506C192.379 171.506 189.677 130.626 182.31 127.671C174.943 124.716 163.155 124.95 163.155 124.95Z" fill="#2F2E41"/>
<path d="M164.221 83.8453C167.09 81.7633 169.412 79.3652 170.948 76.5125C170.948 76.5125 176.213 82.3788 179.431 82.6721C182.648 82.9654 179.723 75.6326 179.723 75.6326L173.873 74.166L168.316 74.7526L163.928 77.6858L164.221 83.8453Z" fill="#2F2E41"/>
<path d="M181.082 95.9033C181.082 95.9033 181.316 95.7774 167.331 96.2883L161.477 97.9048L160.699 98.1197C160.699 98.1197 161.436 112.895 163.401 115.604C165.365 118.313 164.874 119.791 164.383 120.037C163.892 120.283 162.664 119.791 163.401 121.022C164.137 122.253 165.12 121.514 164.137 122.253C163.155 122.992 162.664 125.701 162.664 125.701L184.275 128.656C184.275 128.656 185.011 119.052 186.976 114.127C188.941 109.201 189.432 107.231 189.432 107.231L187.958 97.3809L181.082 95.9033Z" fill="#CBCBCB"/>
<path d="M139.995 53.8979H138.753V19.7588C138.753 14.5185 136.677 9.49273 132.981 5.78724C129.286 2.08174 124.274 8.44725e-06 119.049 0L46.9208 0C41.695 -1.43602e-05 36.6832 2.0817 32.988 5.78718C29.2928 9.49266 27.2168 14.5184 27.2168 19.7587V207.049C27.2168 212.289 29.2927 217.315 32.9879 221.02C36.6832 224.726 41.6949 226.808 46.9207 226.808H119.048C121.636 226.808 124.198 226.296 126.589 225.303C128.979 224.311 131.152 222.855 132.981 221.02C134.811 219.186 136.262 217.007 137.253 214.61C138.243 212.213 138.753 209.644 138.753 207.049V78.1987H139.995L139.995 53.8979Z" fill="#3F3D56"/>
<path d="M134.559 19.8976V206.912C134.561 208.848 134.182 210.766 133.445 212.555C132.708 214.344 131.626 215.971 130.262 217.341C128.898 218.711 127.278 219.798 125.495 220.541C123.712 221.283 121.801 221.667 119.87 221.668H47.3698C43.4698 221.671 39.7285 220.12 36.9688 217.357C34.2092 214.593 32.6573 210.844 32.6545 206.933V19.8976C32.6532 17.9612 33.0322 16.0434 33.7699 14.2538C34.5076 12.4643 35.5897 10.838 36.9542 9.46771C38.3187 8.09748 39.939 7.01016 41.7225 6.26786C43.5061 5.52555 45.418 5.14279 47.349 5.14142H56.1614C55.7285 6.20586 55.5632 7.36074 55.6802 8.50432C55.7973 9.64789 56.193 10.7451 56.8325 11.6991C57.472 12.6532 58.3357 13.4349 59.3475 13.9754C60.3593 14.5159 61.4881 14.7985 62.6345 14.7984H103.957C105.103 14.7985 106.232 14.5159 107.244 13.9754C108.255 13.4349 109.119 12.6532 109.759 11.6991C110.398 10.7451 110.794 9.64789 110.911 8.50432C111.028 7.36074 110.863 6.20586 110.43 5.14142H119.844C123.743 5.13792 127.484 6.68782 130.244 9.45018C133.003 12.2125 134.556 15.9611 134.559 19.8711V19.8976L134.559 19.8976Z" fill="white"/>
<path d="M134.559 47.5659V41.1958H124.945V6.05238C123.312 5.44764 121.584 5.13918 119.844 5.14143H118.592V41.1958H85.2425V14.7984H78.8901V41.1958H50.9397V5.14146H47.3698C46.436 5.14 45.5043 5.22853 44.5874 5.40582V41.1958H32.6545V47.5659H44.5874V62.2999L32.6547 69.2081V76.5655L44.5874 69.6573V113.496H32.6545V119.866H44.5874V183.247H32.6545V189.617H44.5874V221.404C45.5043 221.581 46.436 221.67 47.3698 221.668H50.9397V189.617H78.8901V221.668H85.2425V189.617H118.592V221.668H119.844C121.584 221.671 123.312 221.362 124.945 220.757V189.618H134.559V183.247H124.945V155.538H134.473V149.168H124.945V119.866H134.559V113.496H124.945V74.6385H134.559V68.2685H124.945V47.5659L134.559 47.5659ZM70.0384 47.5659L70.0382 47.566L50.9399 58.6243L50.9397 58.6244V47.5659H70.0384ZM50.9397 65.9786L50.9399 65.9785L78.8901 49.7955V113.496H50.9397V65.9786ZM50.9397 183.247V119.866H78.8901V183.247H50.9397ZM118.592 183.247H85.2425V155.538H118.592V183.247ZM118.592 149.168H85.2425V119.866H118.592V149.168ZM118.592 113.496H85.2425V74.6385H118.592V113.496ZM118.592 68.2685H85.2425V47.5659H118.592V68.2685Z" fill="#E5E5E5"/>
<path d="M139.873 68.3863C139.873 88.6152 103.347 133.679 103.347 133.679C103.347 133.679 66.8208 88.6152 66.8208 68.3863C66.8208 58.672 70.6691 49.3556 77.519 42.4866C84.369 35.6176 93.6595 31.7586 103.347 31.7586C113.034 31.7586 122.325 35.6176 129.175 42.4866C136.025 49.3556 139.873 58.672 139.873 68.3863Z" fill="#2ECB70"/>
<path d="M124.945 66.7938C124.945 71.0773 123.679 75.2647 121.305 78.8264C118.932 82.388 115.559 85.164 111.612 86.8032C107.666 88.4425 103.323 88.8714 99.1337 88.0357C94.9441 87.2 91.0957 85.1373 88.0752 82.1084C85.0547 79.0794 82.9976 75.2203 82.1643 71.0191C81.3309 66.8178 81.7586 62.4631 83.3933 58.5056C85.028 54.5481 87.7963 51.1656 91.3481 48.7857C94.8999 46.4059 99.0756 45.1357 103.347 45.1357C106.182 45.1344 108.99 45.693 111.609 46.7797C114.229 47.8665 116.61 49.4599 118.615 51.4692C120.621 53.4785 122.212 55.8643 123.298 58.4903C124.384 61.1162 124.944 63.931 124.945 66.7739V66.7938Z" fill="white"/>
<path d="M103.272 75.3433C107.716 75.3433 111.318 71.7309 111.318 67.2746C111.318 62.8184 107.716 59.2059 103.272 59.2059C98.8283 59.2059 95.2258 62.8184 95.2258 67.2746C95.2258 71.7309 98.8283 75.3433 103.272 75.3433Z" fill="#2ECB70"/>
<path d="M114.95 85.7032C111.481 87.915 107.456 89.0895 103.345 89.0889C99.2346 89.0883 95.2095 87.9128 91.7415 85.7C92.4627 83.1718 93.9855 80.9479 96.0794 79.3649C98.1733 77.7818 100.724 76.9257 103.347 76.926C105.969 76.9264 108.52 77.7832 110.614 79.3668C112.707 80.9505 114.229 83.1748 114.95 85.7032Z" fill="#2ECB70"/>
<path d="M103.347 160.115C108.785 160.115 113.193 155.694 113.193 150.241C113.193 144.788 108.785 140.368 103.347 140.368C97.909 140.368 93.5007 144.788 93.5007 150.241C93.5007 155.694 97.909 160.115 103.347 160.115Z" fill="#2ECB70"/>
<path d="M255.682 227H0.317618C0.23338 227 0.152593 226.966 0.0930281 226.907C0.0334632 226.847 0 226.766 0 226.681C0 226.597 0.0334632 226.516 0.0930281 226.456C0.152593 226.397 0.23338 226.363 0.317618 226.363H255.682C255.767 226.363 255.847 226.397 255.907 226.456C255.967 226.516 256 226.597 256 226.681C256 226.766 255.967 226.847 255.907 226.907C255.847 226.966 255.767 227 255.682 227Z" fill="#CBCBCB"/>
</g>
<defs>
<clipPath id="clip0_492_1629">
<rect width="256" height="227" fill="white"/>
</clipPath>
</defs>
</svg>
