<svg width="256" height="228" viewBox="0 0 256 228" fill="none" xmlns="http://www.w3.org/2000/svg">
<path d="M244.66 226.698L244.319 226.57C244.244 226.542 236.789 223.677 233.296 217.183C229.804 210.688 231.514 202.867 231.531 202.789L231.612 202.433L231.953 202.561C232.028 202.59 239.483 205.454 242.975 211.949C246.468 218.444 244.758 226.264 244.74 226.342L244.66 226.698ZM233.855 216.88C236.808 222.372 242.7 225.187 244.192 225.829C244.476 224.225 245.366 217.737 242.416 212.251C239.466 206.766 233.573 203.947 232.079 203.302C231.795 204.908 230.906 211.395 233.855 216.88Z" fill="#3F3D56"/>
<path d="M235.965 214.904C242.241 218.691 244.659 226.212 244.659 226.212C244.659 226.212 236.9 227.594 230.624 223.807C224.347 220.021 221.93 212.5 221.93 212.5C221.93 212.5 229.689 211.118 235.965 214.904Z" fill="#2ECB70"/>
<path d="M139.995 53.8979H138.753V19.7588C138.753 14.5185 136.677 9.49273 132.982 5.78724C129.286 2.08174 124.275 8.44725e-06 119.049 0L46.921 0C41.6951 -1.43602e-05 36.6833 2.0817 32.9881 5.78718C29.2929 9.49266 27.2169 14.5184 27.2169 19.7587V207.049C27.2169 212.289 29.2929 217.315 32.9881 221.02C36.6833 224.726 41.6951 226.808 46.9209 226.808H119.049C121.636 226.808 124.198 226.296 126.589 225.303C128.98 224.311 131.152 222.855 132.981 221.02C134.811 219.186 136.263 217.007 137.253 214.61C138.243 212.213 138.753 209.644 138.753 207.049V78.1987H139.995L139.995 53.8979Z" fill="#3F3D56"/>
<path d="M134.559 19.8977V206.912C134.561 208.848 134.182 210.766 133.445 212.555C132.708 214.344 131.626 215.971 130.262 217.341C128.898 218.711 127.278 219.799 125.495 220.541C123.712 221.284 121.801 221.667 119.87 221.668H47.3698C43.4698 221.671 39.7285 220.12 36.9688 217.357C34.2092 214.593 32.6573 210.844 32.6545 206.933V19.8977C32.6532 17.9612 33.0322 16.0435 33.7699 14.2539C34.5076 12.4643 35.5897 10.838 36.9542 9.46777C38.3187 8.09754 39.939 7.01022 41.7225 6.26792C43.5061 5.52561 45.418 5.14285 47.349 5.14149H56.1614C55.7285 6.20592 55.5632 7.36081 55.6802 8.50438C55.7973 9.64795 56.193 10.7451 56.8325 11.6992C57.472 12.6533 58.3357 13.435 59.3475 13.9755C60.3593 14.5159 61.4881 14.7986 62.6345 14.7984H103.957C105.103 14.7986 106.232 14.5159 107.244 13.9755C108.255 13.435 109.119 12.6533 109.759 11.6992C110.398 10.7451 110.794 9.64795 110.911 8.50438C111.028 7.36081 110.863 6.20592 110.43 5.14149H119.844C123.743 5.13798 127.484 6.68788 130.244 9.45024C133.003 12.2126 134.556 15.9611 134.559 19.8712V19.8977L134.559 19.8977Z" fill="white"/>
<path d="M134.559 47.5659V41.1958H124.945V6.05238C123.312 5.44764 121.584 5.13918 119.844 5.14143H118.592V41.1958H85.2425V14.7984H78.8901V41.1958H50.9397V5.14146H47.3698C46.436 5.14 45.5043 5.22853 44.5874 5.40582V41.1958H32.6545V47.5659H44.5874V62.2999L32.6547 69.2081V76.5655L44.5874 69.6573V113.496H32.6545V119.866H44.5874V183.247H32.6545V189.617H44.5874V221.404C45.5043 221.581 46.436 221.67 47.3698 221.668H50.9397V189.617H78.8901V221.668H85.2425V189.617H118.592V221.668H119.844C121.584 221.671 123.312 221.362 124.945 220.757V189.618H134.559V183.247H124.945V155.538H134.473V149.168H124.945V119.866H134.559V113.496H124.945V74.6385H134.559V68.2685H124.945V47.5659L134.559 47.5659ZM70.0384 47.5659L70.0382 47.566L50.9399 58.6243L50.9397 58.6244V47.5659H70.0384ZM50.9397 65.9786L50.9399 65.9785L78.8901 49.7955V113.496H50.9397V65.9786ZM50.9397 183.247V119.866H78.8901V183.247H50.9397ZM118.592 183.247H85.2425V155.538H118.592V183.247ZM118.592 149.168H85.2425V119.866H118.592V149.168ZM118.592 113.496H85.2425V74.6385H118.592V113.496ZM118.592 68.2685H85.2425V47.5659H118.592V68.2685Z" fill="#E5E5E5"/>
<path d="M255.682 227H0.317618C0.23338 227 0.152593 226.966 0.0930281 226.907C0.0334632 226.847 0 226.766 0 226.681C0 226.597 0.0334632 226.516 0.0930281 226.456C0.152593 226.397 0.23338 226.363 0.317618 226.363H255.682C255.767 226.363 255.847 226.397 255.907 226.456C255.967 226.516 256 226.597 256 226.681C256 226.766 255.967 226.847 255.907 226.907C255.847 226.966 255.767 227 255.682 227Z" fill="#CBCBCB"/>
<path d="M165.9 66.3937C167.129 62.458 169.925 58.8484 173.792 57.5179C177.659 56.1875 184.404 57.4311 186.228 61.1242C188.856 66.4467 187.675 72.9649 186.282 78.7439C185.555 78.7053 184.822 78.6749 184.086 78.6473L183.046 75.1643V78.6129C177.305 78.4348 171.329 78.5463 165.349 78.6617C164.813 74.5703 164.67 70.3293 165.9 66.3937Z" fill="#2F2E41"/>
<path d="M218.648 216.361L213.819 218.394L203.716 200.653L210.843 197.652L218.648 216.361Z" fill="#9F616A"/>
<path d="M221.842 220.544L206.271 227.098L206.189 226.901C205.515 225.286 205.508 223.469 206.168 221.849C206.828 220.229 208.102 218.939 209.709 218.262L219.22 214.259L221.842 220.544Z" fill="#2F2E41"/>
<path d="M147.832 132.556C147.53 132.118 147.328 131.62 147.239 131.096C147.15 130.571 147.176 130.034 147.316 129.521C147.456 129.008 147.707 128.532 148.05 128.127C148.393 127.721 148.82 127.397 149.302 127.175L159.681 95.7172L166.632 99.441L154.244 129.192C154.56 130.029 154.56 130.954 154.244 131.791C153.927 132.628 153.315 133.32 152.525 133.734C151.735 134.149 150.82 134.258 149.955 134.041C149.09 133.823 148.335 133.295 147.832 132.556Z" fill="#9F616A"/>
<path d="M160.629 222H155.393L152.902 201.715H160.63L160.629 222Z" fill="#9F616A"/>
<path d="M161.964 227.098L145.081 227.098V226.883C145.081 225.133 145.774 223.454 147.006 222.216C148.238 220.979 149.91 220.283 151.653 220.283L161.964 220.284L161.964 227.098Z" fill="#2F2E41"/>
<path d="M181.622 106.623L182.808 109.722L182.571 112.82L159.792 109.96L160.504 107.338L163.114 104.24L181.622 106.623Z" fill="#9F616A"/>
<path d="M174.281 78.7424C178.861 78.7424 182.574 75.0131 182.574 70.4128C182.574 65.8125 178.861 62.0833 174.281 62.0833C169.701 62.0833 165.988 65.8125 165.988 70.4128C165.988 75.0131 169.701 78.7424 174.281 78.7424Z" fill="#9F616A"/>
<path d="M165.487 84.6974L170.233 81.8375L179.724 80.8842L188.113 82.7908L188.029 98.282L182.808 109.722L160.504 107.338L159.555 104.221C159.555 104.221 153.386 95.8988 160.03 91.1322L165.487 84.6974Z" fill="#2ECB70"/>
<path d="M166.674 85.4123L165.487 84.6973C165.487 84.6973 159.081 85.889 157.657 89.7022C156.233 93.5154 154.81 110.675 154.81 110.675L160.742 111.382L162.877 97.3287L166.674 85.4123Z" fill="#2ECB70"/>
<path d="M182.809 111.628V116.922C182.809 116.922 188.978 124.975 185.656 131.171C185.656 131.171 192.774 144.517 193.249 149.284L199.893 171.21C199.893 171.21 216.502 187.893 215.078 199.809L216.027 203.623L205.113 208.389L202.74 205.053L184.232 173.117L168.572 144.041L165.725 178.36C165.725 178.36 167.623 205.053 162.403 207.912L161.928 212.202H150.851V208.125C150.851 208.125 146.742 193.613 149.115 182.65L148.166 136.414C148.166 136.414 152.437 116.872 157.657 113.535L159.555 108.768L182.809 111.628Z" fill="#2F2E41"/>
<path d="M168.582 59.5662C170.176 58.5905 172.001 58.0627 173.867 58.038C175.733 58.0133 177.572 58.4926 179.19 59.4258C180.809 60.359 182.148 61.7117 183.067 63.3427C183.987 64.9736 184.454 66.8229 184.419 68.697C179.783 68.9111 174.914 68.9668 169.976 68.9765L168.809 66.1079L168.121 68.9786C166.617 68.9784 165.109 68.9765 163.599 68.9726C163.537 67.1038 163.965 65.2515 164.84 63.6008C165.714 61.9501 167.005 60.5589 168.582 59.5662Z" fill="#2F2E41"/>
<path d="M155.127 60.5817L43.4829 89.0989L62.6373 164.753L174.282 136.235L155.127 60.5817Z" fill="white"/>
<path d="M174.765 136.524L62.3502 165.238L43 88.8105L155.414 60.0967L174.765 136.524ZM62.9244 164.268L173.799 135.947L154.84 61.0667L43.9658 89.3872L62.9244 164.268Z" fill="#3F3D56"/>
<path d="M67.8732 145.759L160.648 122.062L147.212 68.9934L54.4371 92.6908L67.8732 145.759Z" fill="#E6E6E6"/>
<path d="M87.7187 119.012C93.0175 119.012 97.3131 114.697 97.3131 109.375C97.3131 104.053 93.0175 99.738 87.7187 99.738C82.4198 99.738 78.1243 104.053 78.1243 109.375C78.1243 114.697 82.4198 119.012 87.7187 119.012Z" fill="#2ECB70"/>
<path d="M124.164 130.708L78.549 142.359C78.4921 142.375 78.4339 142.385 78.3751 142.389L90.446 99.3442C90.5185 99.0768 90.6603 98.8335 90.8571 98.6392C91.0538 98.4449 91.2983 98.3065 91.5657 98.2382C91.8331 98.1699 92.1138 98.1742 92.379 98.2505C92.6443 98.3268 92.8846 98.4724 93.0755 98.6725L113.932 120.163L114.93 121.191L124.164 130.708Z" fill="#3F3D56"/>
<path opacity="0.2" d="M124.164 130.708L108.59 134.686L113.411 121.579L113.758 120.635L113.932 120.163L114.93 121.191L124.164 130.708Z" fill="black"/>
<path d="M149.563 124.22L110.109 134.298L114.931 121.191L115.277 120.247L121.559 103.166C121.679 102.899 121.854 102.66 122.072 102.465C122.29 102.27 122.546 102.124 122.824 102.035C123.101 101.946 123.395 101.916 123.685 101.949C123.975 101.981 124.255 102.074 124.506 102.222C124.572 102.266 124.635 102.313 124.695 102.365L149.563 124.22Z" fill="#3F3D56"/>
<path d="M174.92 122.574C175.111 122.617 175.299 122.675 175.481 122.748L189.959 112.739L189.627 108.463L195.986 107.117L197.305 114.629C197.412 115.236 197.319 115.861 197.042 116.411C196.765 116.961 196.317 117.405 195.767 117.678L177.834 126.561C177.766 127.317 177.47 128.034 176.987 128.617C176.503 129.2 175.854 129.621 175.126 129.825C174.399 130.028 173.627 130.004 172.913 129.756C172.199 129.508 171.577 129.047 171.13 128.436C170.683 127.824 170.432 127.09 170.41 126.332C170.389 125.573 170.597 124.826 171.009 124.19C171.42 123.553 172.015 123.058 172.714 122.769C173.412 122.481 174.182 122.412 174.92 122.574Z" fill="#9F616A"/>
<path d="M184.707 83.5058L188.113 82.7908C188.113 82.7908 195.621 80.1692 196.096 89.7023L197.045 112.105L189.996 113.058L187.079 93.5155L184.707 83.5058Z" fill="#2ECB70"/>
</svg>
