<svg width="383" height="454" viewBox="0 0 383 454" fill="none" xmlns="http://www.w3.org/2000/svg">
<path d="M93.4143 261.677L91.4723 261.568C91.4723 261.568 109.354 251.095 112.154 243.043C114.953 234.991 127.244 222.276 128.38 229.572C129.515 236.869 117.389 249.111 117.389 249.111L98.6929 266.677C98.6929 266.677 96.4742 268.457 93.4143 263.677C90.3544 258.896 91.4723 263.677 91.4723 263.677L93.4143 261.677Z" fill="#FFB9B9"/>
<path d="M128.16 311.111C126.719 311.112 125.337 311.686 124.318 312.704C123.299 313.723 122.726 315.105 122.725 316.546V329.261C122.726 330.702 123.299 332.084 124.318 333.103C125.337 334.122 126.719 334.695 128.16 334.696H135.053C136.494 334.695 137.876 334.122 138.895 333.103C139.914 332.084 140.487 330.702 140.488 329.261V316.546C140.487 315.105 139.914 313.723 138.895 312.704C137.876 311.686 136.494 311.112 135.053 311.111H128.16Z" fill="#3F3D56"/>
<path d="M255.592 335.119H248.698C247.145 335.117 245.656 334.5 244.558 333.402C243.46 332.303 242.842 330.814 242.84 329.261V316.546C242.842 314.993 243.46 313.504 244.558 312.405C245.656 311.307 247.145 310.69 248.698 310.688H255.592C257.145 310.69 258.634 311.307 259.732 312.405C260.83 313.504 261.448 314.993 261.45 316.546V329.261C261.448 330.814 260.83 332.303 259.732 333.402C258.634 334.5 257.145 335.117 255.592 335.119Z" fill="#3F3D56"/>
<path d="M251.018 324.938H132.311C126.908 324.938 122.513 321.754 122.513 317.839V295.012L128.405 288.807H256.07L260.815 295.025V317.839C260.815 321.754 256.42 324.938 251.018 324.938Z" fill="#CCCCCC"/>
<path d="M255.516 300.226H129.082L127.797 280.525L128.615 278.509L133.367 266.814H250.374L256.801 280.094L255.516 300.226Z" fill="#CCCCCC"/>
<path d="M256.586 280.137L255.643 294.939H227.826V283.943L255.795 278.504L256.586 280.137Z" fill="white"/>
<path d="M156.349 283.943V294.939H128.95L128.011 280.559L128.811 278.589L156.349 283.943Z" fill="white"/>
<path d="M249.669 270.197H134.071L146.401 229.099C146.904 227.402 147.939 225.911 149.354 224.848C150.77 223.784 152.489 223.204 154.26 223.194L230.816 222.464C232.666 222.446 234.469 223.048 235.937 224.173C237.405 225.299 238.455 226.883 238.918 228.674L249.669 270.197Z" fill="#CCCCCC"/>
<path d="M240.77 266.311L142.951 265.151C142.828 265.15 142.706 265.119 142.596 265.062C142.487 265.005 142.392 264.923 142.32 264.823C142.247 264.722 142.199 264.607 142.18 264.484C142.161 264.362 142.17 264.237 142.208 264.12L151.586 234.862C151.637 234.702 151.737 234.563 151.872 234.464C152.008 234.366 152.171 234.312 152.338 234.312H231.016C231.184 234.312 231.347 234.366 231.482 234.464C231.617 234.563 231.718 234.702 231.769 234.861L241.532 265.279C241.571 265.398 241.58 265.525 241.56 265.649C241.539 265.772 241.49 265.889 241.416 265.99C241.341 266.091 241.244 266.173 241.132 266.228C241.02 266.284 240.896 266.313 240.77 266.311Z" fill="white"/>
<path d="M205.053 227.48H178.687C178.465 227.48 178.264 227.261 178.161 226.909C178.06 226.548 178.074 226.164 178.203 225.812L180.378 220.314C180.489 220.034 180.669 219.867 180.862 219.867H202.879C203.071 219.867 203.252 220.034 203.363 220.314L205.537 225.812C205.666 226.164 205.681 226.548 205.579 226.909C205.477 227.261 205.275 227.48 205.053 227.48Z" fill="#2ECB70"/>
<path d="M134.144 269.351H116.803V265.54C116.805 264.308 117.295 263.126 118.166 262.255C119.037 261.384 120.219 260.894 121.451 260.892H134.144V269.351Z" fill="#CCCCCC"/>
<path d="M266.948 269.351H249.607V260.892H262.301C263.533 260.894 264.714 261.384 265.585 262.255C266.457 263.126 266.947 264.308 266.948 265.54V269.351Z" fill="#CCCCCC"/>
<path d="M114.775 328.767L30.0005 359.221L30.3604 360.222L115.134 329.769L114.775 328.767Z" fill="#3F3D56"/>
<path d="M268.443 328.769L268.083 329.771L352.859 360.217L353.219 359.215L268.443 328.769Z" fill="#3F3D56"/>
<path d="M196.586 350.85H191.512V344.296H196.586V350.85ZM196.586 337.742H191.512V331.188H196.586V337.742Z" fill="#E6E6E6"/>
<path d="M196.586 378H191.512V371.446H196.586V378ZM196.586 364.891H191.512V358.337H196.586V364.891Z" fill="#E6E6E6"/>
<path d="M318 363H313.257L311 345H318V363Z" fill="#FFB8B8"/>
<path d="M319 368H303V367.811C303.002 366.27 303.659 364.793 304.826 363.704C305.994 362.615 307.577 362.002 309.228 362H319L319 368Z" fill="#2F2E41"/>
<path d="M379 354.439L375.046 357L364 341.779L369.836 338L379 354.439Z" fill="#FFB8B8"/>
<path d="M369.943 365L369.844 364.836C369.036 363.497 368.796 361.895 369.176 360.38C369.557 358.866 370.526 357.563 371.873 356.757L379.847 352L383 357.21L369.943 365Z" fill="#2F2E41"/>
<path d="M318.776 359L318.693 359C316.361 358.992 314.032 358.859 311.715 358.6C310.832 358.513 309.873 358.419 308.719 358.325L308.68 358.317C307.892 358.084 307.87 350.735 308.204 325.576C308.375 312.69 308.569 298.085 308.338 288.784L308.336 288.693L308.405 288.633C316.955 281.232 327.936 278.458 339.323 280.822L339.408 280.839L339.452 280.913C344.162 288.845 351.275 300.269 358.153 311.318C373.943 336.681 378.459 344.141 377.964 344.703L377.904 344.749C376.826 345.286 376.017 345.699 375.328 346.05C373.024 347.226 372.07 347.712 366.945 349.813L366.818 349.864L366.726 349.764C350.705 332.294 337.372 312.779 329.125 294.739C328.162 300.898 326.992 308.94 325.756 317.437C322.202 341.872 319.8 357.962 318.834 358.941L318.776 359Z" fill="#2F2E41"/>
<path d="M343.281 211C344.868 204.356 346.212 196.861 343.22 190.742C341.144 186.496 333.465 185.066 329.062 186.595C324.66 188.125 321.477 192.275 320.078 196.8C318.678 201.325 318.84 206.201 319.45 210.905C327.547 210.748 335.643 210.59 343.281 211Z" fill="#2F2E41"/>
<path d="M329.5 211C334.747 211 339 206.747 339 201.5C339 196.253 334.747 192 329.5 192C324.253 192 320 196.253 320 201.5C320 206.747 324.253 211 329.5 211Z" fill="#FFB8B8"/>
<path d="M341.998 199.665C342.028 197.999 341.735 196.344 341.136 194.798C340.536 193.252 339.643 191.847 338.509 190.666C337.375 189.484 336.024 188.551 334.535 187.922C333.046 187.292 331.45 186.979 329.842 187.001C328.234 187.023 326.646 187.38 325.174 188.05C323.701 188.72 322.374 189.689 321.27 190.901C320.167 192.113 319.31 193.542 318.75 195.104C318.19 196.666 317.94 198.328 318.012 199.992C326.19 200.01 334.367 200.028 341.998 199.665Z" fill="#2F2E41"/>
<path d="M323.158 291.312C332.632 291.269 342.043 292.855 350.987 296C351.298 280.896 346.13 265.764 336.786 254.444L336.717 254.359L336.752 254.256C339.248 246.999 341.828 239.499 344.133 232.036L344.098 231.91C342.481 226.127 339.011 220.283 333.49 214.044C332.891 213.42 332.078 213.048 331.217 213.004C330.356 212.96 329.51 213.248 328.852 213.808C319.037 222.861 313.701 236.425 314.925 249.207L314.929 249.245L314.918 249.281C310.595 264.019 309.025 271.59 307.641 278.268C306.631 283.141 305.756 287.359 304 293.387C310.294 292.009 316.717 291.313 323.158 291.312Z" fill="#3F3D56"/>
<path opacity="0.1" d="M337 244L322.999 275L315 266.766L337 244Z" fill="black"/>
<path d="M305.526 261.373L306.56 263.254C306.57 263.271 306.571 263.292 306.565 263.31C306.559 263.329 306.545 263.344 306.526 263.353L306.476 263.377L311.864 273.174C312.013 273.445 312.041 273.761 311.941 274.051C311.842 274.341 311.623 274.583 311.334 274.722L304.793 277.873C304.649 277.942 304.493 277.984 304.332 277.996C304.171 278.009 304.009 277.991 303.856 277.945C303.702 277.899 303.56 277.825 303.437 277.728C303.314 277.63 303.212 277.511 303.138 277.376L303.138 277.376L297.94 267.923L297.904 267.941C297.89 267.947 297.875 267.948 297.861 267.944C297.847 267.94 297.835 267.931 297.829 267.919L297.24 266.848C297.237 266.842 297.235 266.836 297.234 266.829C297.233 266.822 297.234 266.815 297.237 266.808C297.239 266.802 297.242 266.796 297.247 266.791C297.252 266.785 297.258 266.781 297.264 266.778L297.3 266.761L297.078 266.357L297.042 266.375C297.028 266.382 297.012 266.383 296.998 266.378C296.983 266.374 296.971 266.364 296.964 266.351L296.383 265.296C296.376 265.283 296.375 265.268 296.379 265.254C296.384 265.24 296.394 265.229 296.408 265.222L296.445 265.205L296.142 264.654L296.105 264.672C296.093 264.678 296.079 264.679 296.066 264.675C296.052 264.671 296.042 264.663 296.035 264.652L296.035 264.651L295.719 264.075C295.712 264.064 295.711 264.051 295.715 264.038C295.719 264.026 295.728 264.016 295.741 264.01L295.778 263.992L295.136 262.826C294.987 262.555 294.959 262.239 295.059 261.949C295.158 261.659 295.377 261.417 295.666 261.278L302.207 258.127C302.497 257.988 302.834 257.962 303.144 258.055C303.454 258.148 303.712 258.352 303.862 258.623L305.37 261.366L305.42 261.342C305.438 261.333 305.46 261.331 305.48 261.337C305.5 261.343 305.516 261.356 305.526 261.373Z" fill="#3F3D56"/>
<path d="M303.362 259.398L310.918 273.901C311.008 274.074 311.025 274.275 310.965 274.46C310.904 274.645 310.773 274.799 310.598 274.888L304.637 277.918C304.463 278.007 304.26 278.024 304.072 277.965C303.885 277.907 303.729 277.777 303.639 277.604L303.638 277.602L296.082 263.099C296.038 263.013 296.011 262.92 296.003 262.824C295.994 262.728 296.006 262.631 296.035 262.54C296.065 262.448 296.113 262.363 296.176 262.29C296.239 262.216 296.316 262.156 296.402 262.112L296.402 262.112L297.294 261.658L297.353 261.771C297.39 261.842 297.44 261.904 297.502 261.956C297.563 262.007 297.634 262.046 297.71 262.07C297.787 262.094 297.867 262.103 297.947 262.096C298.027 262.09 298.105 262.068 298.176 262.032L301.207 260.49C301.352 260.417 301.46 260.29 301.51 260.138C301.559 259.986 301.545 259.82 301.471 259.678L301.412 259.565L302.363 259.081C302.538 258.992 302.741 258.976 302.929 259.035C303.116 259.094 303.272 259.224 303.362 259.397L303.362 259.398Z" fill="#2ECB70"/>
<path d="M305.366 276.989C305.955 276.95 306.528 276.79 307.044 276.519C307.56 276.248 308.007 275.873 308.353 275.42C308.7 274.968 308.938 274.449 309.05 273.9C309.161 273.352 309.145 272.786 309.001 272.244L321 264.8L314.157 262L303.812 269.499C302.866 269.788 302.066 270.395 301.561 271.206C301.057 272.017 300.885 272.975 301.076 273.898C301.268 274.821 301.81 275.646 302.601 276.215C303.392 276.785 304.376 277.06 305.366 276.989Z" fill="#FFB8B8"/>
<path d="M317.189 272L317.041 271.896C314.258 269.852 311.168 267.738 308.179 265.694L308 265.571L308.141 265.406C314.519 257.96 320.904 250.183 327.08 242.66C327.075 242.648 327.071 242.639 327.068 242.633L327.126 242.603L327.151 242.573L327.164 242.584L327.202 242.565L327.033 242.578L325.13 227.684C323.41 225.343 323.081 220.697 325.334 217.454C327.668 214.094 332.606 212.969 335.901 215.046C336.764 215.625 337.486 216.389 338.013 217.283C338.54 218.178 338.859 219.179 338.946 220.213C339.068 221.134 338.983 222.07 338.696 222.954C338.409 223.838 337.928 224.647 337.288 225.322C338.097 233.204 338.128 240.25 338.158 247.065L338.159 247.133L338.116 247.189C331.533 255.535 324.301 263.836 317.307 271.864L317.189 272Z" fill="#3F3D56"/>
<path d="M189.324 186.208L181.789 176.52L186.171 173.112L189.738 177.699L201.791 164.976L205.821 168.794L189.324 186.208Z" fill="white"/>
<path d="M34.066 333.631C35.9266 332.138 36.2242 329.419 34.7307 327.558C34.586 327.378 34.4271 327.209 34.2555 327.055L41.2497 306.69L36.0926 303.371L27.9623 327.619C26.5021 329.501 26.8444 332.211 28.727 333.671C30.3022 334.893 32.5094 334.876 34.066 333.631Z" fill="#FFB6B6"/>
<path d="M40.0347 277.443C38.7994 282.669 36.9556 287.233 37.2054 289.425C37.4526 291.611 34.7811 293.712 35.6301 295.44C36.4774 297.172 33.869 297.358 34.5743 300.145C35.2822 302.939 35.742 303.537 35.1444 303.997C34.5426 304.455 31.3633 315.118 31.3633 315.118L33.2282 315.802L38.6699 317.787L51.4576 296.754L51.4189 270.937L48.2437 270.836C47.4814 271.121 46.637 271.464 45.7948 271.878C43.2229 273.119 40.6209 274.955 40.0347 277.443Z" fill="#1ABE5F"/>
<path d="M87.1238 441.255H93.7738L96.9373 415.605H87.1223L87.1238 441.255Z" fill="#FFB6B6"/>
<path d="M95.9863 441.853V437.345L94.2381 437.452L87.1217 437.874L85.4748 437.975L84.2156 453.073L84.1482 453.883H88.8699L89.0217 453.079L89.7074 449.425L91.4781 453.079L91.866 453.883H104.384C105.935 453.873 107.188 452.617 107.195 451.066C107.723 448.599 97.3128 443.264 95.9863 441.853Z" fill="#2F2E41"/>
<path d="M9.21704 434.016L15.0013 437.298L30.4104 416.551L21.8738 411.708L9.21704 434.016Z" fill="#FFB6B6"/>
<path d="M16.6332 438.908L18.8536 434.99L17.2909 434.22L10.8885 431.078L9.40448 430.347L2.1139 441.022L0.399414 443.529L2.33871 444.63L4.50287 445.861L7.43707 442.399L7.11106 447.34L17.3359 453.146H17.3415L17.9992 453.517C19.3514 454.281 21.0667 453.806 21.8328 452.455C23.5079 450.566 17.0885 440.797 16.6332 438.908Z" fill="#2F2E41"/>
<path d="M54.1227 315.347C45.2117 321.252 36.3903 377.984 38.7054 377.058L17.7019 416.201L28.4374 423.459L67.2541 361.349L80.1574 388.825L85.486 430.999L98.8519 430.044C95.3788 382.532 86.7073 332.422 79.5209 313.039L54.1227 315.347Z" fill="#2F2E41"/>
<path d="M47.3572 319.561L47.2602 319.925C56.6807 325.167 82.4666 319.096 82.4666 319.096L78.3105 305.704L83.9214 275.954C83.8911 271.152 79.9732 267.283 75.1708 267.314C74.9734 267.315 74.7762 267.323 74.5795 267.337L67.8097 262.322L58.1722 262.655L51.7257 269.776L47.8744 271.152L44.8821 272.218C44.2771 272.763 43.6168 273.391 42.9841 274.084L47.7174 302.253L49.7308 310.676L47.3572 319.561Z" fill="#1ABE5F"/>
<path d="M63.0004 261.205C69.8297 261.205 75.366 255.669 75.366 248.84C75.366 242.01 69.8297 236.474 63.0004 236.474C56.171 236.474 50.6348 242.01 50.6348 248.84C50.6348 255.669 56.171 261.205 63.0004 261.205Z" fill="#FFB6B6"/>
<path d="M46.7412 244.532C46.7781 244.546 46.8104 244.56 46.8473 244.574C46.9178 244.605 46.9902 244.631 47.0642 244.653C47.5357 244.826 48.0273 244.939 48.5272 244.989C48.7404 245.012 48.9546 245.023 49.169 245.023C49.4439 245.024 49.7186 245.006 49.9911 244.97C50.2943 244.932 50.594 244.871 50.8875 244.787C51.0267 244.75 51.164 244.705 51.2988 244.654C53.1598 243.993 54.6029 242.498 55.1973 240.614V240.61C55.2285 240.519 55.2549 240.426 55.2764 240.333C55.4137 239.813 55.4833 239.278 55.4836 238.74V238.731C55.4871 237.42 55.0784 236.141 54.3153 235.075C53.8552 234.423 53.3237 234.314 53.6218 233.568C54.573 231.189 50.6815 229.244 48.3842 230.29C48.3014 230.282 48.2181 230.279 48.1349 230.28C46.5879 230.276 46.0141 232.561 45.0919 233.847L45.1186 233.855C45.7373 234.072 46.0633 234.749 45.8467 235.368C45.7255 235.714 45.4512 235.984 45.1035 236.101C44.4895 236.301 43.8691 236.478 43.2423 236.631C41.1752 239.072 43.545 246.215 46.7412 244.532Z" fill="#2F2E41"/>
<path d="M47.879 251.078C48.4671 253.723 49.8771 256.114 51.907 257.909C53.9993 259.6 63.8391 263.605 64.6697 260.176C64.1141 262.572 64.4489 263.487 65.3426 264.343C65.4955 264.136 65.6576 263.938 65.8244 263.744C66.4385 263.037 67.1752 262.446 67.9992 262C68.0205 263.446 67.9164 264.892 67.6881 266.321C68.0563 266.661 68.4068 267.019 68.7382 267.395C70.3295 262.652 73.8177 256.971 71.2923 252.652C70.29 250.938 71.1257 250.703 72.0134 250.507C73.5632 250.163 74.4178 243.803 74.7866 242.257C75.244 240.319 75.4252 238.089 74.2239 236.497C73.0226 234.905 69.9843 234.838 69.3699 236.734L68.0905 234.995C66.4373 231.356 62.0485 232.084 58.0806 232.554C54.0568 233.164 50.5929 235.719 48.8229 239.384C47.1192 243.043 46.7842 247.193 47.879 251.078Z" fill="#2F2E41"/>
<path d="M54.1345 234.458C54.3067 238.943 51.7851 243.098 47.727 245.016C46.9208 245.381 46.219 244.185 47.0308 243.818C50.6585 242.144 52.917 238.446 52.7491 234.455C52.7029 233.564 54.0884 233.57 54.1345 234.458Z" fill="#1ABE5F"/>
<path d="M68.8726 293.049C68.8726 293.049 79.1303 294.891 82.3271 290.573C85.5239 286.255 89.0193 282.791 89.6552 280.681C90.2911 278.57 93.5732 277.698 93.4761 275.773C93.379 273.848 95.8515 274.708 96.3019 271.865C96.7524 269.021 96.5669 268.288 97.2999 268.103C98.0328 267.917 105.159 259.376 105.159 259.376L99.5 254.04L79.4519 268.32L68.8726 293.049Z" fill="#1ABE5F"/>
<path d="M64.7144 112.697C73.5005 120.049 83.2953 113.893 92.6831 113.423C97.0365 113.205 101.381 114.255 105.672 115.038C109.744 115.781 113.802 116.862 117.525 118.705C121.583 120.644 125.035 123.654 127.509 127.411C128 128.179 128.741 127.612 128.735 126.694C128.676 116.947 124.462 117.737 120.063 118.455C115.88 119.139 112.324 114.988 108.196 114.094C103.877 113.225 99.512 112.603 95.122 112.231C90.3628 111.759 85.5917 111.438 80.8087 111.269C75.4458 111.08 70.081 111.082 64.7143 111.276C63.8028 111.308 63.7985 112.729 64.7144 112.697Z" fill="#3F3D56"/>
<path d="M122.375 173.78C123.032 174.443 122.036 175.305 121.27 174.736C114.881 169.995 108.491 165.256 102.102 160.521C102.094 160.513 102.085 160.507 102.076 160.503C101.635 160.217 101.215 159.902 100.82 159.56C94.8731 158.96 88.3377 156.975 82.1463 156.113C76.6793 156.817 71.228 157.656 65.7453 158.279C60.9634 158.854 56.1495 159.152 51.33 159.172C47.4056 159.154 43.179 159.131 39.6194 157.525C35.9192 155.856 33.8606 152.572 32.912 149.197C32.4443 147.475 32.1391 145.716 32 143.942V132.938C32.5055 128.147 34.0482 123.401 38.2331 120.058C44.5131 115.042 53.9149 114.911 61.9512 114.771C71.5251 114.596 81.1014 114.959 90.6308 115.858C98.3962 116.598 106.563 117.316 113.744 120.18C116.824 121.412 119.727 123.122 121.849 125.436C124.235 128.058 125.616 131.381 125.762 134.856C126.143 142.115 122.328 148.755 120.238 155.608C118.424 161.54 117.403 168.732 122.375 173.78Z" fill="#1ABE5F"/>
<path d="M127.508 127.411C129.493 130.578 130.616 134.223 130.272 137.98C129.975 141.222 128.646 144.271 127.192 147.144C125.685 150.122 123.998 153.013 122.766 156.122C121.414 159.51 120.914 163.179 121.311 166.806C121.554 169.161 122.029 171.484 122.477 173.806L123.843 180.895L125.031 180.204L105.389 163.224C104.701 162.629 103.692 163.629 104.385 164.228L124.026 181.208C124.139 181.314 124.282 181.381 124.436 181.398C124.589 181.416 124.744 181.383 124.877 181.305C125.011 181.228 125.115 181.109 125.176 180.967C125.236 180.825 125.25 180.667 125.213 180.517C124.41 176.352 123.462 172.185 122.874 167.983C122.536 165.865 122.488 163.709 122.733 161.578C122.973 159.953 123.4 158.361 124.006 156.834C126.361 150.679 130.774 145.294 131.624 138.601C132.157 134.408 130.958 130.241 128.735 126.694C128.251 125.921 127.021 126.633 127.508 127.411Z" fill="#3F3D56"/>
<path d="M106.631 157.009L77.5839 160.446L63.0601 162.164C58.6355 162.687 54.0244 163.422 49.6032 162.496C42.16 160.937 37.5384 154.192 36.0844 147.084C35.1844 142.684 35.503 138.081 36.2602 133.685C36.6639 131.342 37.1966 129.023 37.7723 126.716C38.2853 124.661 38.668 122.447 39.5545 120.512C40.2619 118.939 41.3145 117.545 42.6342 116.434C43.9539 115.323 45.5068 114.524 47.1777 114.095C48.2214 113.881 49.2789 113.741 50.3422 113.676C51.5369 113.556 52.7324 113.446 53.9289 113.345C56.3217 113.143 58.7174 112.98 61.1158 112.855C62.3148 112.793 63.5143 112.74 64.7142 112.697C65.6256 112.663 65.63 111.242 64.7142 111.276C59.7211 111.459 54.7378 111.805 49.7643 112.314C47.738 112.523 45.8647 112.825 44.0356 113.774C42.4551 114.6 41.0671 115.752 39.9623 117.152C38.8302 118.596 37.9998 120.254 37.5202 122.025C36.8666 124.379 36.2732 126.756 35.732 129.139C34.6409 133.94 33.8566 138.89 34.221 143.826C34.7599 151.128 38.2555 158.918 45.0394 162.394C49.0455 164.446 53.6169 164.538 58.0066 164.146C62.9021 163.709 67.7839 163.026 72.6645 162.448L102.883 158.873L106.631 158.43C107.528 158.324 107.539 156.902 106.631 157.009Z" fill="#3F3D56"/>
<path d="M219.964 112.697C228.75 120.049 238.545 113.893 247.933 113.423C252.287 113.205 256.631 114.255 260.922 115.038C264.994 115.781 269.052 116.862 272.775 118.705C276.833 120.644 280.285 123.654 282.759 127.411C283.25 128.179 283.991 127.612 283.985 126.694C283.926 116.947 279.712 117.737 275.313 118.455C271.13 119.139 267.574 114.988 263.446 114.094C259.127 113.225 254.762 112.603 250.372 112.231C245.613 111.759 240.842 111.438 236.059 111.269C230.696 111.08 225.331 111.082 219.964 111.276C219.053 111.308 219.049 112.729 219.964 112.697Z" fill="#3F3D56"/>
<path d="M277.625 175.78C278.282 176.443 277.286 177.305 276.52 176.736C270.131 171.995 263.741 167.256 257.352 162.521C257.344 162.513 257.335 162.507 257.326 162.503C256.885 162.217 256.465 161.902 256.07 161.56C250.123 160.96 243.588 158.975 237.396 158.113C231.929 158.817 226.478 159.656 220.995 160.279C216.213 160.854 211.399 161.152 206.58 161.172C202.656 161.154 198.429 161.131 194.869 159.525C191.169 157.856 189.111 154.572 188.162 151.197C187.694 149.475 187.389 147.716 187.25 145.942V134.938C187.756 130.147 189.298 125.401 193.483 122.058C199.763 117.042 209.165 116.911 217.201 116.771C226.775 116.596 236.351 116.959 245.881 117.858C253.646 118.598 261.813 119.316 268.994 122.18C272.074 123.412 274.977 125.122 277.099 127.436C279.485 130.058 280.866 133.381 281.012 136.856C281.393 144.115 277.578 150.755 275.488 157.608C273.674 163.54 272.653 170.732 277.625 175.78Z" fill="#1ABE5F"/>
<path d="M282.758 127.411C284.743 130.578 285.866 134.223 285.522 137.98C285.225 141.222 283.896 144.271 282.442 147.144C280.935 150.122 279.248 153.013 278.016 156.122C276.664 159.51 276.164 163.179 276.561 166.806C276.804 169.161 277.279 171.484 277.727 173.806L279.093 180.895L280.281 180.204L260.639 163.224C259.951 162.629 258.942 163.629 259.635 164.228L279.276 181.208C279.389 181.314 279.532 181.381 279.686 181.398C279.839 181.416 279.994 181.383 280.127 181.305C280.261 181.228 280.365 181.109 280.426 180.967C280.486 180.825 280.5 180.667 280.463 180.517C279.66 176.352 278.712 172.185 278.124 167.983C277.786 165.865 277.738 163.709 277.983 161.578C278.223 159.953 278.65 158.361 279.256 156.834C281.611 150.679 286.024 145.294 286.874 138.601C287.407 134.408 286.208 130.241 283.985 126.694C283.501 125.921 282.271 126.633 282.758 127.411Z" fill="#3F3D56"/>
<path d="M261.881 157.009L232.834 160.446L218.31 162.164C213.886 162.687 209.274 163.422 204.853 162.496C197.41 160.937 192.788 154.192 191.334 147.084C190.434 142.684 190.753 138.081 191.51 133.685C191.914 131.342 192.447 129.023 193.022 126.716C193.535 124.661 193.918 122.447 194.805 120.512C195.512 118.939 196.565 117.545 197.884 116.434C199.204 115.323 200.757 114.524 202.428 114.095C203.471 113.881 204.529 113.741 205.592 113.676C206.787 113.556 207.982 113.446 209.179 113.345C211.572 113.143 213.967 112.98 216.366 112.855C217.565 112.793 218.764 112.74 219.964 112.697C220.876 112.663 220.88 111.242 219.964 111.276C214.971 111.459 209.988 111.805 205.014 112.314C202.988 112.523 201.115 112.825 199.286 113.774C197.705 114.6 196.317 115.752 195.212 117.152C194.08 118.596 193.25 120.254 192.77 122.025C192.117 124.379 191.523 126.756 190.982 129.139C189.891 133.94 189.107 138.89 189.471 143.826C190.01 151.128 193.505 158.918 200.289 162.394C204.295 164.446 208.867 164.538 213.257 164.146C218.152 163.709 223.034 163.026 227.915 162.448L258.133 158.873L261.881 158.43C262.778 158.324 262.789 156.902 261.881 157.009Z" fill="#3F3D56"/>
<path d="M60.6342 146.36C59.6742 146.36 58.8342 146.28 58.1142 146.12C57.4076 145.96 56.8076 145.787 56.3142 145.6L55.9342 142.98L57.6142 142.78L57.8542 144.26C58.2542 144.393 58.6609 144.5 59.0742 144.58C59.5009 144.66 59.9876 144.7 60.5342 144.7C61.0409 144.7 61.5009 144.633 61.9142 144.5C62.3409 144.367 62.6809 144.16 62.9342 143.88C63.2009 143.6 63.3342 143.233 63.3342 142.78C63.3342 142.313 63.2009 141.913 62.9342 141.58C62.6676 141.247 62.1276 141.02 61.3142 140.9L59.8342 140.66C58.6609 140.46 57.7609 140.073 57.1342 139.5C56.5076 138.913 56.1942 138.153 56.1942 137.22C56.1942 136.527 56.3742 135.927 56.7342 135.42C57.1076 134.913 57.6342 134.527 58.3142 134.26C58.9942 133.993 59.7876 133.86 60.6942 133.86C61.1742 133.86 61.6209 133.887 62.0342 133.94C62.4476 133.98 62.8476 134.053 63.2342 134.16C63.6342 134.267 64.0409 134.407 64.4542 134.58L64.8142 137.34L63.0742 137.52L62.8142 135.8C62.5342 135.707 62.2142 135.633 61.8542 135.58C61.4942 135.513 61.0942 135.48 60.6542 135.48C59.8409 135.48 59.2009 135.627 58.7342 135.92C58.2676 136.2 58.0342 136.593 58.0342 137.1C58.0342 137.607 58.2009 138 58.5342 138.28C58.8809 138.56 59.4142 138.753 60.1342 138.86L61.7542 139.14C62.9809 139.313 63.8676 139.693 64.4142 140.28C64.9609 140.867 65.2342 141.613 65.2342 142.52C65.2342 143.227 65.1009 143.827 64.8342 144.32C64.5676 144.813 64.2076 145.213 63.7542 145.52C63.3142 145.813 62.8209 146.027 62.2742 146.16C61.7409 146.293 61.1942 146.36 60.6342 146.36ZM66.5098 146V144.4H68.1898V135L66.2898 134.34L66.8098 132.74L70.1898 133.88V137.64C71.0432 137.107 71.9765 136.84 72.9898 136.84C74.1232 136.84 74.9765 137.14 75.5498 137.74C76.1232 138.34 76.4098 139.227 76.4098 140.4V144.4H78.0898V146H73.5498V144.4H74.3898V140.72C74.3898 139.947 74.2365 139.387 73.9298 139.04C73.6365 138.693 73.1632 138.52 72.5098 138.52C72.1498 138.52 71.7565 138.573 71.3298 138.68C70.9032 138.787 70.5298 138.927 70.2098 139.1V144.4H71.0698V146H66.5098ZM85.8103 145.52C84.9036 146.067 83.957 146.34 82.9703 146.34C81.7703 146.34 80.857 146.107 80.2303 145.64C79.617 145.173 79.3036 144.493 79.2903 143.6C79.277 141.773 80.457 140.86 82.8303 140.86L85.1903 140.88C85.1903 140.04 85.0236 139.42 84.6903 139.02C84.3703 138.607 83.917 138.4 83.3303 138.4C83.0236 138.4 82.7303 138.42 82.4503 138.46C82.1703 138.5 81.9036 138.56 81.6503 138.64L81.4503 139.68L79.7903 139.42L80.1503 137.42C80.6703 137.233 81.197 137.093 81.7303 137C82.2636 136.893 82.797 136.84 83.3303 136.84C84.597 136.84 85.557 137.18 86.2103 137.86C86.877 138.527 87.2103 139.513 87.2103 140.82V144.2L88.9703 144.78L88.4503 146.42L85.8103 145.52ZM82.8903 142.28C82.397 142.28 82.017 142.393 81.7503 142.62C81.4836 142.833 81.3503 143.147 81.3503 143.56C81.3503 144.387 81.917 144.8 83.0503 144.8C83.8503 144.8 84.5636 144.587 85.1903 144.16V142.28H82.8903ZM92.8052 137.9C93.3252 137.553 93.8518 137.3 94.3852 137.14C94.9318 136.967 95.4718 136.88 96.0052 136.88C96.4985 136.88 96.8918 136.94 97.1852 137.06L97.5252 139.38L95.8652 139.74L95.6652 138.64C95.2252 138.667 94.8052 138.74 94.4052 138.86C94.0052 138.98 93.6585 139.14 93.3652 139.34L93.3452 144.4H95.3052V146H89.6652V144.4H91.3452V139.2L89.4252 138.56L89.9652 136.94L92.8052 137.9ZM106.99 144.94C106.43 145.42 105.844 145.773 105.23 146C104.63 146.227 103.997 146.34 103.33 146.34C102.344 146.34 101.484 146.147 100.75 145.76C100.017 145.373 99.4505 144.827 99.0505 144.12C98.6638 143.4 98.4705 142.56 98.4705 141.6C98.4705 140.653 98.6571 139.827 99.0305 139.12C99.4038 138.4 99.9305 137.84 100.61 137.44C101.304 137.04 102.097 136.84 102.99 136.84C103.87 136.84 104.63 137.027 105.27 137.4C105.91 137.76 106.404 138.267 106.75 138.92C107.11 139.573 107.29 140.34 107.29 141.22C107.29 141.367 107.284 141.527 107.27 141.7C107.257 141.873 107.237 142.04 107.21 142.2L100.41 142.22C100.45 142.807 100.604 143.287 100.87 143.66C101.15 144.02 101.497 144.293 101.91 144.48C102.337 144.653 102.797 144.74 103.29 144.74C103.864 144.74 104.397 144.653 104.89 144.48C105.384 144.307 105.83 144.053 106.23 143.72L106.99 144.94ZM105.29 140.78C105.29 140.087 105.084 139.527 104.67 139.1C104.27 138.66 103.724 138.44 103.03 138.44C102.377 138.44 101.797 138.66 101.29 139.1C100.797 139.527 100.517 140.087 100.45 140.78H105.29Z" fill="white"/>
<path d="M222.662 146.36C221.702 146.36 220.862 146.28 220.142 146.12C219.435 145.96 218.835 145.787 218.342 145.6L217.962 142.98L219.642 142.78L219.882 144.26C220.282 144.393 220.688 144.5 221.102 144.58C221.528 144.66 222.015 144.7 222.562 144.7C223.068 144.7 223.528 144.633 223.942 144.5C224.368 144.367 224.708 144.16 224.962 143.88C225.228 143.6 225.362 143.233 225.362 142.78C225.362 142.313 225.228 141.913 224.962 141.58C224.695 141.247 224.155 141.02 223.342 140.9L221.862 140.66C220.688 140.46 219.788 140.073 219.162 139.5C218.535 138.913 218.222 138.153 218.222 137.22C218.222 136.527 218.402 135.927 218.762 135.42C219.135 134.913 219.662 134.527 220.342 134.26C221.022 133.993 221.815 133.86 222.722 133.86C223.202 133.86 223.648 133.887 224.062 133.94C224.475 133.98 224.875 134.053 225.262 134.16C225.662 134.267 226.068 134.407 226.482 134.58L226.842 137.34L225.102 137.52L224.842 135.8C224.562 135.707 224.242 135.633 223.882 135.58C223.522 135.513 223.122 135.48 222.682 135.48C221.868 135.48 221.228 135.627 220.762 135.92C220.295 136.2 220.062 136.593 220.062 137.1C220.062 137.607 220.228 138 220.562 138.28C220.908 138.56 221.442 138.753 222.162 138.86L223.782 139.14C225.008 139.313 225.895 139.693 226.442 140.28C226.988 140.867 227.262 141.613 227.262 142.52C227.262 143.227 227.128 143.827 226.862 144.32C226.595 144.813 226.235 145.213 225.782 145.52C225.342 145.813 224.848 146.027 224.302 146.16C223.768 146.293 223.222 146.36 222.662 146.36ZM235.357 145.52C234.451 146.067 233.504 146.34 232.517 146.34C231.317 146.34 230.404 146.107 229.777 145.64C229.164 145.173 228.851 144.493 228.837 143.6C228.824 141.773 230.004 140.86 232.377 140.86L234.737 140.88C234.737 140.04 234.571 139.42 234.237 139.02C233.917 138.607 233.464 138.4 232.877 138.4C232.571 138.4 232.277 138.42 231.997 138.46C231.717 138.5 231.451 138.56 231.197 138.64L230.997 139.68L229.337 139.42L229.697 137.42C230.217 137.233 230.744 137.093 231.277 137C231.811 136.893 232.344 136.84 232.877 136.84C234.144 136.84 235.104 137.18 235.757 137.86C236.424 138.527 236.757 139.513 236.757 140.82V144.2L238.517 144.78L237.997 146.42L235.357 145.52ZM232.437 142.28C231.944 142.28 231.564 142.393 231.297 142.62C231.031 142.833 230.897 143.147 230.897 143.56C230.897 144.387 231.464 144.8 232.597 144.8C233.397 144.8 234.111 144.587 234.737 144.16V142.28H232.437ZM237.669 137.2H242.289V138.78H241.269L242.809 142.44L243.529 144.24L244.269 142.44L245.809 138.78H244.789V137.2H249.289V138.78H247.869L244.609 146H242.389L239.229 138.78H237.689L237.669 137.2ZM257.963 144.94C257.403 145.42 256.816 145.773 256.203 146C255.603 146.227 254.97 146.34 254.303 146.34C253.316 146.34 252.456 146.147 251.723 145.76C250.99 145.373 250.423 144.827 250.023 144.12C249.636 143.4 249.443 142.56 249.443 141.6C249.443 140.653 249.63 139.827 250.003 139.12C250.376 138.4 250.903 137.84 251.583 137.44C252.276 137.04 253.07 136.84 253.963 136.84C254.843 136.84 255.603 137.027 256.243 137.4C256.883 137.76 257.376 138.267 257.723 138.92C258.083 139.573 258.263 140.34 258.263 141.22C258.263 141.367 258.256 141.527 258.243 141.7C258.23 141.873 258.21 142.04 258.183 142.2L251.383 142.22C251.423 142.807 251.576 143.287 251.843 143.66C252.123 144.02 252.47 144.293 252.883 144.48C253.31 144.653 253.77 144.74 254.263 144.74C254.836 144.74 255.37 144.653 255.863 144.48C256.356 144.307 256.803 144.053 257.203 143.72L257.963 144.94ZM256.263 140.78C256.263 140.087 256.056 139.527 255.643 139.1C255.243 138.66 254.696 138.44 254.003 138.44C253.35 138.44 252.77 138.66 252.263 139.1C251.77 139.527 251.49 140.087 251.423 140.78H256.263Z" fill="white"/>
<path d="M209.652 26.9442C209.782 24.4591 210.861 22.1187 212.666 20.4057C214.471 18.6927 216.865 17.7377 219.353 17.7376C219.648 17.7376 219.94 17.753 220.229 17.7788C221.363 15.8265 222.99 14.2061 224.947 13.0795C226.904 11.9528 229.123 11.3593 231.381 11.3582C233.639 11.3571 235.858 11.9486 237.816 13.0734C239.774 14.1982 241.403 15.817 242.539 17.7682C242.783 17.75 243.028 17.7376 243.276 17.7376C245.764 17.7377 248.158 18.6927 249.963 20.4057C251.768 22.1187 252.847 24.4591 252.977 26.9442" fill="#F2F2F2"/>
<path d="M211.676 26.1969C211.806 23.7118 212.885 21.3714 214.69 19.6584C216.495 17.9454 218.888 16.9903 221.377 16.9903C221.672 16.9903 221.963 17.0057 222.252 17.0315C223.387 15.0792 225.014 13.4588 226.971 12.3321C228.928 11.2055 231.146 10.612 233.404 10.6109C235.662 10.6098 237.881 11.2012 239.839 12.326C241.797 13.4509 243.426 15.0697 244.563 17.0209C244.806 17.0026 245.051 16.9903 245.299 16.9903C247.788 16.9903 250.181 17.9454 251.986 19.6584C253.791 21.3714 254.87 23.7118 255 26.1969" stroke="#3F3D56" stroke-miterlimit="10"/>
<path d="M101.377 81.6883C102.251 64.7122 116.292 51.2164 133.485 51.2164C134.462 51.2164 135.427 51.2673 136.382 51.3527C140.138 44.8911 145.523 39.5279 152.001 35.7989C158.478 32.0699 165.82 30.1055 173.294 30.102C180.768 30.0985 188.112 32.0559 194.593 35.7788C201.073 39.5016 206.464 44.8597 210.226 51.3178C211.032 51.2573 211.843 51.2164 212.664 51.2164C229.857 51.2164 243.898 64.7122 244.772 81.6883" fill="#F2F2F2"/>
<path d="M108.073 79.215C108.947 62.2389 122.988 48.7431 140.181 48.7431C141.158 48.7431 142.123 48.7941 143.078 48.8794C146.834 42.4178 152.22 37.0546 158.697 33.3256C165.174 29.5966 172.516 27.6323 179.99 27.6287C187.464 27.6252 194.808 29.5826 201.289 33.3055C207.77 37.0284 213.16 42.3864 216.922 48.8445C217.728 48.784 218.539 48.7431 219.36 48.7431C236.553 48.7431 250.594 62.2389 251.468 79.215" stroke="#3F3D56" stroke-miterlimit="10"/>
<path d="M90 23.0999C90.176 19.7374 91.6356 16.5707 94.0779 14.2529C96.5201 11.935 99.7588 10.6428 103.126 10.6428C103.525 10.6428 103.92 10.6636 104.31 10.6985C105.846 8.05696 108.047 5.86448 110.695 4.34004C113.343 2.8156 116.345 2.01255 119.4 2.01111C122.455 2.00967 125.458 2.80987 128.107 4.3318C130.756 5.85374 132.96 8.04414 134.498 10.6842C134.827 10.6595 135.159 10.6428 135.495 10.6428C138.862 10.6428 142.1 11.935 144.543 14.2529C146.985 16.5707 148.444 19.7374 148.62 23.0999" fill="#F2F2F2"/>
<path d="M92.7378 22.0887C92.9138 18.7263 94.3734 15.5596 96.8157 13.2418C99.2579 10.9239 102.497 9.63174 105.864 9.63167C106.263 9.63167 106.658 9.65251 107.048 9.6874C108.583 7.04585 110.785 4.85337 113.433 3.32893C116.081 1.80449 119.082 1.00145 122.138 1C125.193 0.998557 128.195 1.79876 130.845 3.3207C133.494 4.84263 135.698 7.03303 137.236 9.67313C137.565 9.64839 137.897 9.63167 138.232 9.63167C141.599 9.63174 144.838 10.9239 147.28 13.2418C149.723 15.5596 151.182 18.7263 151.358 22.0887" stroke="#3F3D56" stroke-miterlimit="10"/>
<path d="M127.242 62.576H132.266V64.192H130.618L130.602 70.384H133.146L133.722 68.784L135.258 69.312L134.314 72H127.242V70.384H128.778V64.192H127.242V62.576ZM143.154 71.12C142.674 71.5253 142.184 71.824 141.682 72.016C141.181 72.208 140.664 72.304 140.13 72.304C139.33 72.304 138.626 72.144 138.018 71.824C137.421 71.4933 136.957 71.04 136.626 70.464C136.296 69.8773 136.13 69.2053 136.13 68.448C136.13 67.6587 136.285 66.976 136.594 66.4C136.914 65.8133 137.352 65.36 137.906 65.04C138.461 64.7093 139.106 64.544 139.842 64.544C140.578 64.544 141.218 64.6933 141.762 64.992C142.306 65.2907 142.728 65.712 143.026 66.256C143.325 66.7893 143.474 67.4187 143.474 68.144C143.474 68.272 143.464 68.416 143.442 68.576C143.432 68.736 143.416 68.8907 143.394 69.04H137.89C137.922 69.456 138.045 69.8027 138.258 70.08C138.472 70.3467 138.738 70.544 139.058 70.672C139.389 70.8 139.746 70.864 140.13 70.864C140.578 70.864 141.005 70.7947 141.41 70.656C141.816 70.5067 142.184 70.2987 142.514 70.032L143.154 71.12ZM141.666 67.792C141.656 67.2587 141.49 66.832 141.17 66.512C140.861 66.1813 140.434 66.016 139.89 66.016C139.378 66.016 138.93 66.1813 138.546 66.512C138.173 66.832 137.965 67.2587 137.922 67.792H141.666ZM148.266 72.304C147.743 72.304 147.285 72.2027 146.89 72C146.506 71.7973 146.207 71.4827 145.994 71.056C145.781 70.6293 145.674 70.08 145.674 69.408V66.288H144.346V64.848H145.674V63.472L147.434 62.944V64.848H149.37V66.288H147.434V68.896C147.434 69.504 147.514 69.9787 147.674 70.32C147.845 70.6613 148.122 70.832 148.506 70.832C148.805 70.832 149.162 70.7253 149.578 70.512L149.914 71.856C149.669 71.9733 149.402 72.0747 149.114 72.16C148.837 72.256 148.554 72.304 148.266 72.304ZM151.04 65.728C151.04 65.728 151.083 65.664 151.168 65.536C151.264 65.408 151.376 65.248 151.504 65.056C151.632 64.864 151.733 64.6827 151.808 64.512C151.467 64.4373 151.221 64.288 151.072 64.064C150.923 63.84 150.848 63.6053 150.848 63.36C150.848 62.9867 150.971 62.688 151.216 62.464C151.461 62.24 151.765 62.128 152.128 62.128C152.469 62.128 152.768 62.2613 153.024 62.528C153.291 62.784 153.424 63.0933 153.424 63.456C153.424 63.7973 153.349 64.128 153.2 64.448C153.051 64.7573 152.869 65.0453 152.656 65.312C152.443 65.568 152.24 65.7867 152.048 65.968C151.856 66.1493 151.717 66.2827 151.632 66.368L151.04 65.728ZM158.625 66.08C158.433 66.016 158.235 65.968 158.033 65.936C157.841 65.8933 157.633 65.872 157.409 65.872C157.035 65.872 156.699 65.9413 156.401 66.08C156.113 66.2187 155.969 66.432 155.969 66.72C155.969 66.9653 156.054 67.1627 156.225 67.312C156.395 67.4613 156.726 67.568 157.217 67.632L158.177 67.776C159.009 67.8827 159.611 68.112 159.985 68.464C160.358 68.816 160.545 69.296 160.545 69.904C160.545 70.448 160.401 70.9013 160.113 71.264C159.825 71.616 159.441 71.8773 158.961 72.048C158.491 72.2187 157.974 72.304 157.409 72.304C156.811 72.304 156.273 72.24 155.793 72.112C155.323 71.9947 154.891 71.8187 154.497 71.584L154.209 69.92L155.729 69.648L155.905 70.528C156.129 70.6347 156.358 70.7147 156.593 70.768C156.827 70.8213 157.067 70.848 157.313 70.848C157.75 70.848 158.129 70.7733 158.449 70.624C158.769 70.4747 158.929 70.2507 158.929 69.952C158.929 69.728 158.849 69.5467 158.689 69.408C158.529 69.2693 158.209 69.1733 157.729 69.12L156.817 68.976C156.049 68.8587 155.446 68.6187 155.009 68.256C154.571 67.8933 154.353 67.4133 154.353 66.816C154.353 66.3467 154.481 65.9413 154.737 65.6C154.993 65.2587 155.35 64.9973 155.809 64.816C156.267 64.6347 156.79 64.544 157.377 64.544C157.878 64.544 158.342 64.6027 158.769 64.72C159.195 64.8267 159.59 65.008 159.953 65.264L160.241 66.8L158.881 67.056L158.625 66.08ZM175.863 64.096C175.831 64.0747 175.729 64.0427 175.559 64C175.399 63.9573 175.201 63.9147 174.967 63.872C174.732 63.8293 174.487 63.808 174.231 63.808C173.303 63.808 172.588 64.1067 172.087 64.704C171.585 65.3013 171.335 66.1547 171.335 67.264C171.335 68.384 171.591 69.248 172.103 69.856C172.615 70.464 173.324 70.768 174.231 70.768C174.497 70.768 174.748 70.736 174.983 70.672C175.217 70.608 175.415 70.5493 175.575 70.496C175.735 70.432 175.831 70.3947 175.863 70.384L176.199 68.992L177.751 69.344L177.271 71.616C177.271 71.616 177.143 71.6747 176.887 71.792C176.631 71.9093 176.273 72.0267 175.815 72.144C175.356 72.2613 174.828 72.32 174.231 72.32C173.271 72.32 172.428 72.1387 171.703 71.776C170.988 71.4027 170.428 70.8427 170.023 70.096C169.617 69.3387 169.415 68.3947 169.415 67.264C169.415 66.2187 169.612 65.3227 170.007 64.576C170.401 63.8293 170.961 63.2587 171.687 62.864C172.412 62.4587 173.255 62.256 174.215 62.256C174.887 62.256 175.452 62.3253 175.911 62.464C176.38 62.592 176.732 62.7253 176.967 62.864C177.201 63.0027 177.319 63.072 177.319 63.072L177.767 65.328L176.199 65.68L175.863 64.096ZM182.674 64.544C183.474 64.544 184.156 64.6987 184.722 65.008C185.287 65.3173 185.719 65.7653 186.018 66.352C186.316 66.928 186.466 67.6213 186.466 68.432C186.466 69.648 186.13 70.5973 185.458 71.28C184.796 71.9627 183.868 72.304 182.674 72.304C181.895 72.304 181.223 72.1493 180.658 71.84C180.103 71.5307 179.676 71.088 179.378 70.512C179.09 69.9253 178.946 69.232 178.946 68.432C178.946 67.6213 179.09 66.928 179.378 66.352C179.676 65.7653 180.103 65.3173 180.658 65.008C181.223 64.6987 181.895 64.544 182.674 64.544ZM182.674 66.032C182.034 66.032 181.548 66.24 181.218 66.656C180.898 67.0613 180.738 67.6533 180.738 68.432C180.738 69.2107 180.898 69.808 181.218 70.224C181.548 70.64 182.034 70.848 182.674 70.848C183.335 70.848 183.831 70.64 184.162 70.224C184.492 69.808 184.658 69.2107 184.658 68.432C184.658 67.6533 184.492 67.0613 184.162 66.656C183.831 66.24 183.335 66.032 182.674 66.032ZM187.54 72V70.544H188.9V66.656L187.364 66.128L187.828 64.672L190.052 65.44C190.468 65.1627 190.89 64.944 191.316 64.784C191.743 64.624 192.25 64.544 192.836 64.544C193.498 64.544 194.031 64.672 194.436 64.928C194.852 65.184 195.156 65.5413 195.348 66C195.551 66.448 195.652 66.96 195.652 67.536V70.544H196.98V72H193.172V70.544H193.844V67.776C193.844 67.264 193.732 66.864 193.508 66.576C193.284 66.2773 192.916 66.128 192.404 66.128C192.095 66.128 191.786 66.1813 191.476 66.288C191.178 66.3947 190.922 66.5227 190.708 66.672V70.544H191.364V72H187.54ZM198.118 72V70.544H199.478V66.656L197.942 66.128L198.406 64.672L200.63 65.44C201.046 65.1627 201.468 64.944 201.894 64.784C202.321 64.624 202.828 64.544 203.414 64.544C204.076 64.544 204.609 64.672 205.014 64.928C205.43 65.184 205.734 65.5413 205.926 66C206.129 66.448 206.23 66.96 206.23 67.536V70.544H207.558V72H203.75V70.544H204.422V67.776C204.422 67.264 204.31 66.864 204.086 66.576C203.862 66.2773 203.494 66.128 202.982 66.128C202.673 66.128 202.364 66.1813 202.054 66.288C201.756 66.3947 201.5 66.5227 201.286 66.672V70.544H201.942V72H198.118ZM215.279 71.12C214.799 71.5253 214.309 71.824 213.807 72.016C213.306 72.208 212.789 72.304 212.255 72.304C211.455 72.304 210.751 72.144 210.143 71.824C209.546 71.4933 209.082 71.04 208.751 70.464C208.421 69.8773 208.255 69.2053 208.255 68.448C208.255 67.6587 208.41 66.976 208.719 66.4C209.039 65.8133 209.477 65.36 210.031 65.04C210.586 64.7093 211.231 64.544 211.967 64.544C212.703 64.544 213.343 64.6933 213.887 64.992C214.431 65.2907 214.853 65.712 215.151 66.256C215.45 66.7893 215.599 67.4187 215.599 68.144C215.599 68.272 215.589 68.416 215.567 68.576C215.557 68.736 215.541 68.8907 215.519 69.04H210.015C210.047 69.456 210.17 69.8027 210.383 70.08C210.597 70.3467 210.863 70.544 211.183 70.672C211.514 70.8 211.871 70.864 212.255 70.864C212.703 70.864 213.13 70.7947 213.535 70.656C213.941 70.5067 214.309 70.2987 214.639 70.032L215.279 71.12ZM213.791 67.792C213.781 67.2587 213.615 66.832 213.295 66.512C212.986 66.1813 212.559 66.016 212.015 66.016C211.503 66.016 211.055 66.1813 210.671 66.512C210.298 66.832 210.09 67.2587 210.047 67.792H213.791ZM221.639 66.096C221.447 66.032 221.26 65.9893 221.079 65.968C220.908 65.9467 220.732 65.936 220.551 65.936C219.9 65.936 219.399 66.1493 219.047 66.576C218.695 67.0027 218.519 67.6373 218.519 68.48C218.519 69.216 218.711 69.792 219.095 70.208C219.479 70.624 219.948 70.832 220.503 70.832C220.855 70.832 221.218 70.768 221.591 70.64C221.964 70.5013 222.332 70.304 222.695 70.048L223.431 71.136C223.122 71.3707 222.818 71.5787 222.519 71.76C222.22 71.9307 221.906 72.064 221.575 72.16C221.244 72.256 220.871 72.304 220.455 72.304C219.687 72.304 219.015 72.16 218.439 71.872C217.874 71.5733 217.436 71.1413 217.127 70.576C216.818 70 216.663 69.3013 216.663 68.48C216.663 67.616 216.818 66.8907 217.127 66.304C217.436 65.7173 217.879 65.2747 218.455 64.976C219.031 64.6773 219.724 64.528 220.535 64.528C220.951 64.528 221.362 64.5707 221.767 64.656C222.183 64.7307 222.594 64.8427 222.999 64.992L223.399 67.056L221.863 67.392L221.639 66.096ZM228.344 72.304C227.822 72.304 227.363 72.2027 226.968 72C226.584 71.7973 226.286 71.4827 226.072 71.056C225.859 70.6293 225.752 70.08 225.752 69.408V66.288H224.424V64.848H225.752V63.472L227.512 62.944V64.848H229.448V66.288H227.512V68.896C227.512 69.504 227.592 69.9787 227.752 70.32C227.923 70.6613 228.2 70.832 228.584 70.832C228.883 70.832 229.24 70.7253 229.656 70.512L229.992 71.856C229.747 71.9733 229.48 72.0747 229.192 72.16C228.915 72.256 228.632 72.304 228.344 72.304Z" fill="black"/>
</svg>
