<svg width="24" height="24" viewBox="0 0 24 24" fill="none" xmlns="http://www.w3.org/2000/svg">
<g clip-path="url(#clip0_492_369)">
<path d="M8.28541 4.70851L10.168 6.59629M-0.0143433 15.004C0.0696012 14.4164 0.116378 13.8051 0.312439 13.2418C0.425385 12.9173 0.579681 12.6088 0.771514 12.3237C0.987699 12.0025 1.26748 11.7227 1.82705 11.1631L9.59945 3.39446C10.12 2.87388 10.9641 2.87388 11.4846 3.39446C12.0052 3.91504 12.0052 4.75906 11.4846 5.27964L3.59257 13.1679C3.11844 13.6421 2.88138 13.8791 2.61287 14.0711C2.3745 14.2415 2.11812 14.3852 1.84835 14.4996C1.25925 14.7495 0.606358 14.8545 -0.0143433 15.004Z" stroke="white" stroke-width="0.7" stroke-linejoin="round"/>
</g>
<defs>
<clipPath id="clip0_492_369">
<rect width="24" height="24" fill="white"/>
</clipPath>
</defs>
</svg>
