<svg width="20" height="20" viewBox="0 0 20 20" fill="none" xmlns="http://www.w3.org/2000/svg">
<path d="M9.99999 10.4167C10.9205 10.4167 11.6667 9.67048 11.6667 8.75C11.6667 7.82953 10.9205 7.08334 9.99999 7.08334C9.07952 7.08334 8.33333 7.82953 8.33333 8.75C8.33333 9.67048 9.07952 10.4167 9.99999 10.4167ZM9.99999 10.4167V12.9167M16.6667 10C16.6667 13.7176 12.1167 16.4115 10.5345 17.2358C10.3634 17.325 10.2778 17.3696 10.1591 17.3927C10.0667 17.4106 9.93333 17.4106 9.84087 17.3927C9.72217 17.3696 9.63661 17.325 9.46548 17.2358C7.88329 16.4115 3.33333 13.7176 3.33333 10V6.84801C3.33333 6.18175 3.33333 5.84862 3.4423 5.56226C3.53856 5.30929 3.69498 5.08357 3.89804 4.90461C4.12791 4.70204 4.43983 4.58507 5.06367 4.35113L9.53183 2.67557C9.70508 2.6106 9.7917 2.57811 9.88081 2.56524C9.95986 2.55382 10.0401 2.55382 10.1192 2.56524C10.2083 2.57811 10.2949 2.6106 10.4682 2.67557L14.9363 4.35113C15.5602 4.58507 15.8721 4.70204 16.1019 4.90461C16.305 5.08357 16.4614 5.30929 16.5577 5.56226C16.6667 5.84862 16.6667 6.18175 16.6667 6.84801V10Z" stroke="white" stroke-linecap="round" stroke-linejoin="round"/>
</svg>
