<svg width="17" height="17" viewBox="0 0 17 17" fill="none" xmlns="http://www.w3.org/2000/svg">
<path d="M4.125 9.375H5.875M4.125 5.875H9.375M4.125 12.875H5.875M12 16.375H14.1875M9.375 12.875H9.38375M9.375 9.375H9.38375M12.875 16.375H4.825C3.35486 16.375 2.61979 16.375 2.05827 16.0889C1.56435 15.8372 1.16278 15.4357 0.911108 14.9417C0.625 14.3802 0.625 13.6451 0.625 12.175V3.03745C0.625 2.24523 0.625 1.84912 0.791424 1.61942C0.936598 1.41904 1.15982 1.2895 1.40583 1.26286C1.68784 1.23234 2.03176 1.42886 2.71959 1.82191L2.99291 1.97809C3.24608 2.12276 3.37267 2.19509 3.5071 2.22342C3.62606 2.24848 3.74894 2.24848 3.8679 2.22342C4.00233 2.19509 4.12892 2.12276 4.38209 1.97809L6.05541 1.02191C6.30858 0.877241 6.43517 0.804905 6.5696 0.77658C6.68856 0.751516 6.81144 0.751516 6.9304 0.77658C7.06483 0.804905 7.19142 0.877241 7.44459 1.02191L9.11791 1.97809C9.37107 2.12276 9.49767 2.19509 9.6321 2.22342C9.75106 2.24848 9.87394 2.24848 9.9929 2.22342C10.1273 2.19509 10.2539 2.12276 10.5071 1.97809L10.7804 1.82191C11.4682 1.42886 11.8122 1.23234 12.0942 1.26286C12.3402 1.2895 12.5634 1.41904 12.7086 1.61942C12.875 1.84912 12.875 2.24523 12.875 3.03745V10.25M12.875 9.375H16.375V14.625C16.375 15.5915 15.5915 16.375 14.625 16.375C13.6585 16.375 12.875 15.5915 12.875 14.625V9.375Z" stroke="white" stroke-linecap="round" stroke-linejoin="round"/>
</svg>
