<svg width="128" height="97" viewBox="0 0 128 97" fill="none" xmlns="http://www.w3.org/2000/svg">
<path d="M107.387 96.9718L25.1868 97C21.0573 97.0014 17.3582 94.881 15.2922 91.3281C14.2591 89.5514 13.7424 87.6025 13.7417 85.6531C13.741 83.704 14.2566 81.7544 15.2882 79.9772L56.3622 5.6787C58.426 2.12415 62.1236 0.00141959 66.2532 7.1171e-07C70.3827 -0.00141817 74.0818 2.11877 76.1481 5.6719L117.279 79.9514C118.309 81.7234 118.825 83.6701 118.825 85.6182C118.825 87.5663 118.31 89.5156 117.278 91.2931C115.214 94.8474 111.517 96.9703 107.387 96.9718ZM14.775 85.6517C14.7748 87.426 23.8454 83.6027 24.785 85.2188C26.6647 88.4511 21.4295 95.9768 25.1865 95.9755C25.1865 95.9755 114.507 94.0147 116.385 90.7811C117.323 89.1643 117.792 87.3906 117.792 85.6173C117.791 83.844 117.321 82.0709 116.381 80.4547L75.2499 6.17519C73.3756 2.95214 70.0105 1.02317 66.2535 1.02446C62.4983 1.02575 14.7751 83.8772 14.775 85.6517Z" fill="#3F3D56"/>
<path d="M90.0973 80.6489C110.765 80.6489 127.519 63.8946 127.519 43.227C127.519 22.5595 110.765 5.80518 90.0973 5.80518C69.4298 5.80518 52.6754 22.5595 52.6754 43.227C52.6754 63.8946 69.4298 80.6489 90.0973 80.6489Z" fill="#2ECB70"/>
<path d="M90.1041 66.1671C92.0017 66.1671 93.54 64.6288 93.54 62.7311C93.54 60.8335 92.0017 59.2952 90.1041 59.2952C88.2064 59.2952 86.6681 60.8335 86.6681 62.7311C86.6681 64.6288 88.2064 66.1671 90.1041 66.1671Z" fill="white"/>
<path d="M90.0894 20.2869C89.7737 22.3842 90.3393 22.823 90.3424 31.8646C90.3455 40.9063 92.2216 53.0289 90.1007 53.0296C87.9798 53.0303 87.2041 28.0119 79.8395 25.7977C71.1808 23.1943 91.1111 13.4976 90.0894 20.2869Z" fill="white"/>
<path d="M39.6347 62.3179L36.2739 69.5167C40.3369 66.5631 46.6832 64.0171 51.7333 62.6535C47.0279 60.3493 41.2701 56.6343 37.8302 52.9562L39.7632 60.5626C17.1002 55.8831 0.82552 38.2583 0.81863 18.0688L0 17.7833C0.00719527 38.8717 16.0567 57.5402 39.6347 62.3179Z" fill="#3F3D56"/>
</svg>
