<svg width="20" height="20" viewBox="0 0 20 20" fill="none" xmlns="http://www.w3.org/2000/svg">
<path d="M6.4 11.8C6.4 11.8 7.75 13.6 10 13.6C12.25 13.6 13.6 11.8 13.6 11.8M12.7 7.3H12.709M7.3 7.3H7.309M19 10C19 14.9706 14.9706 19 10 19C5.02944 19 1 14.9706 1 10C1 5.02944 5.02944 1 10 1C14.9706 1 19 5.02944 19 10ZM13.15 7.3C13.15 7.54853 12.9485 7.75 12.7 7.75C12.4515 7.75 12.25 7.54853 12.25 7.3C12.25 7.05147 12.4515 6.85 12.7 6.85C12.9485 6.85 13.15 7.05147 13.15 7.3ZM7.75 7.3C7.75 7.54853 7.54853 7.75 7.3 7.75C7.05147 7.75 6.85 7.54853 6.85 7.3C6.85 7.05147 7.05147 6.85 7.3 6.85C7.54853 6.85 7.75 7.05147 7.75 7.3Z" stroke="#A6A3A3" stroke-linecap="round" stroke-linejoin="round"/>
</svg>
