<svg width="29" height="25" viewBox="0 0 29 25" fill="none" xmlns="http://www.w3.org/2000/svg">
<path d="M20.3339 8.12497C21.2492 9.34364 21.7917 10.8585 21.7917 12.5C21.7917 14.1415 21.2492 15.6563 20.3339 16.875M23.25 2.71701C25.9352 5.12028 27.625 8.61278 27.625 12.5C27.625 16.3872 25.9352 19.8797 23.25 22.2829M3.70833 8.12497H5.02258C5.82602 8.12497 6.22774 8.12497 6.6 8.02482C6.92983 7.93608 7.24152 7.79009 7.52084 7.59352C7.8361 7.37166 8.09327 7.06305 8.60762 6.44583L12.4371 1.85048C13.0724 1.08803 13.3901 0.706812 13.6676 0.667139C13.9079 0.632783 14.1496 0.720272 14.3122 0.900507C14.5 1.10864 14.5 1.60488 14.5 2.59736V22.4026C14.5 23.3951 14.5 23.8913 14.3122 24.0994C14.1496 24.2797 13.9079 24.3672 13.6676 24.3328C13.3901 24.2931 13.0724 23.9119 12.4371 23.1495L8.60761 18.5541C8.09327 17.9369 7.8361 17.6283 7.52084 17.4064C7.24152 17.2098 6.92983 17.0639 6.6 16.9751C6.22774 16.875 5.82602 16.875 5.02258 16.875H3.70833C2.89159 16.875 2.48322 16.875 2.17126 16.716C1.89686 16.5762 1.67376 16.3531 1.53395 16.0787C1.375 15.7668 1.375 15.3584 1.375 14.5416V10.4583C1.375 9.64156 1.375 9.23319 1.53395 8.92124C1.67376 8.64683 1.89686 8.42374 2.17126 8.28392C2.48322 8.12497 2.89159 8.12497 3.70833 8.12497Z" stroke="white" stroke-linecap="round" stroke-linejoin="round"/>
</svg>
