<svg width="16" height="15" viewBox="0 0 16 15" fill="none" xmlns="http://www.w3.org/2000/svg">
<path d="M7.43327 2.13044C7.60688 1.631 7.69368 1.38128 7.82204 1.31207C7.93313 1.25218 8.0669 1.25218 8.17799 1.31207C8.30634 1.38128 8.39315 1.631 8.56675 2.13044L9.71445 5.43223C9.76386 5.57438 9.78857 5.64545 9.83309 5.69838C9.87241 5.74514 9.92257 5.78157 9.97919 5.80453C10.0433 5.83051 10.1185 5.83204 10.269 5.83511L13.7638 5.90633C14.2925 5.9171 14.5568 5.92249 14.6623 6.02318C14.7536 6.11032 14.7949 6.23754 14.7723 6.3617C14.7461 6.50517 14.5354 6.66489 14.1141 6.98433L11.3285 9.09617C11.2086 9.18709 11.1487 9.23254 11.1121 9.29124C11.0798 9.34309 11.0606 9.40205 11.0563 9.46299C11.0514 9.53198 11.0732 9.604 11.1167 9.74804L12.129 13.0938C12.2821 13.5999 12.3586 13.853 12.2955 13.9844C12.2408 14.0982 12.1326 14.1768 12.0075 14.1937C11.863 14.2131 11.646 14.0621 11.212 13.7601L8.34272 11.7635C8.2192 11.6775 8.15743 11.6346 8.09031 11.6179C8.03101 11.6032 7.96902 11.6032 7.90972 11.6179C7.84259 11.6346 7.78083 11.6775 7.6573 11.7635L4.78805 13.7601C4.35404 14.0621 4.13703 14.2131 3.99251 14.1937C3.86743 14.1768 3.75921 14.0982 3.70454 13.9844C3.64138 13.853 3.71793 13.5999 3.87105 13.0938L4.88328 9.74804C4.92686 9.604 4.94865 9.53198 4.94374 9.46299C4.93941 9.40205 4.92025 9.34309 4.88794 9.29124C4.85136 9.23254 4.7914 9.18709 4.67148 9.09617L1.88595 6.98433C1.4646 6.66489 1.25392 6.50517 1.22777 6.3617C1.20513 6.23754 1.24647 6.11032 1.33776 6.02318C1.44325 5.92249 1.70757 5.9171 2.23621 5.90633L5.73106 5.83511C5.88151 5.83204 5.95674 5.83051 6.02084 5.80453C6.07746 5.78157 6.12761 5.74514 6.16694 5.69838C6.21146 5.64545 6.23616 5.57438 6.28557 5.43223L7.43327 2.13044Z" fill="#DAAF17" stroke="#DAAF17" stroke-linecap="round" stroke-linejoin="round"/>
</svg>
