<svg width="20" height="20" viewBox="0 0 20 20" fill="none" xmlns="http://www.w3.org/2000/svg">
<path d="M17.125 3.33334H6.5C5.09987 3.33334 4.3998 3.33334 3.86502 3.60583C3.39462 3.84551 3.01217 4.22796 2.77248 4.69837C2.5 5.23315 2.5 5.93321 2.5 7.33334V12.6667C2.5 14.0668 2.5 14.7669 2.77248 15.3017C3.01217 15.7721 3.39462 16.1545 3.86502 16.3942C4.3998 16.6667 5.09987 16.6667 6.5 16.6667H13.5C14.9001 16.6667 15.6002 16.6667 16.135 16.3942C16.6054 16.1545 16.9878 15.7721 17.2275 15.3017C17.5 14.7669 17.5 14.0668 17.5 12.6667V10.6667C17.5 9.26655 17.5 8.56648 17.2275 8.0317C16.9878 7.5613 16.6054 7.17884 16.135 6.93916C15.6002 6.66668 14.9001 6.66668 13.5 6.66668H5.5M13.7498 11.7917H13.7573M14.1248 11.7917C14.1248 11.9988 13.9569 12.1667 13.7498 12.1667C13.5427 12.1667 13.3748 11.9988 13.3748 11.7917C13.3748 11.5846 13.5427 11.4167 13.7498 11.4167C13.9569 11.4167 14.1248 11.5846 14.1248 11.7917Z" stroke="white" stroke-linecap="round" stroke-linejoin="round"/>
</svg>
